<svg width="50" height="50" xmlns="http://www.w3.org/2000/svg" viewBox="0 0 50 50">
  <path d="M25 0a25.1 25.1 0 0 0-3.586.261C10.488 1.835 1.835 10.488.261 21.414A25.1 25.1 0 0 0 0 25a25.1 25.1 0 0 0 .261 3.586c1.574 10.926 10.228 19.58 21.154 21.154 1.171.168 2.367.26 3.585.26a25.1 25.1 0 0 0 3.586-.261c10.926-1.574 19.58-10.228 21.154-21.154a25.222 25.222 0 0 0 .228-4.832 24.846 24.846 0 0 0-3.774-11.996 25 25 0 0 1 .02.028c-.016-.025-.034-.049-.05-.075a25.065 25.065 0 0 0-.686-1.031l-.13-.183a25.123 25.123 0 0 0-.702-.936l-.012-.016a25 25 0 0 1 .005.007 9.98 9.98 0 0 0-.127-.161l.122.154a25 25 0 0 0-.127-.161 25.168 25.168 0 0 0-.828-.982l-.04-.046c-.31-.346-.626-.687-.954-1.015a25 25 0 0 0-.023-.023 25.381 25.381 0 0 0-1.015-.954l-.046-.04a25.168 25.168 0 0 0-.982-.828 25 25 0 0 0-.161-.127l.154.122-.161-.127a25 25 0 0 1 .007.005l-.016-.012a25.123 25.123 0 0 0-.936-.702l-.183-.13a25.066 25.066 0 0 0-1.031-.686c-.025-.016-.049-.034-.075-.05a25 25 0 0 1 .028.02A24.83 24.83 0 0 0 26.247.032 25.341 25.341 0 0 0 25 0zm2.081.093c.129.011.259.017.388.03a25 25 0 0 0-.388-.03zm1.495.166a25 25 0 0 1 .1.013l-.1-.013zm-10.584.746a25 25 0 0 0-.062.018l.062-.018zm16.526.879.059.023a25 25 0 0 0-.059-.023zm-19.839.352a25 25 0 0 0-.118.053l.118-.053zm20.848.093c.063.03.128.057.191.087a25 25 0 0 0-.191-.086zm.967.477c.113.059.228.114.339.174a25 25 0 0 0-.339-.174zm.9.491c.176.101.355.199.528.304a25 25 0 0 0-.528-.304zm-25.796.61a25 25 0 0 0-.215.138l.215-.138zM8.77 6.001a25 25 0 0 0-.266.231 25.177 25.177 0 0 1 .266-.231zM6.231 8.504A25 25 0 0 0 6 8.77a25.177 25.177 0 0 1 .231-.266zm18.775.676c.579.004 1.159.028 1.528.07 2.511.289 5.058 1.214 7.119 2.585 2.193 1.458 3.837 3.211 5.089 5.424.836 1.477 1.438 3.173 1.808 5.088.154.795.25 2.919.174 3.847-.138 1.698-.587 3.463-1.326 5.214-.314.744-1.548 2.787-2.098 3.475-.442.552-1.927 2.011-2.586 2.541-1.358 1.091-3.526 2.172-5.536 2.76-1.458.426-3.418.631-5.15.538-2.021-.108-4.048-.626-6.037-1.541l-.414-.191-.901.236-3.311.872c-2.279.602-2.43.635-2.775.615-.486-.028-.801-.169-1.017-.454-.188-.249-.395-.778-.395-1.01 0-.086.172-.792.383-1.569.211-.777.464-1.763.563-2.19a29.03 29.03 0 0 1 .441-1.63 142.203 142.203 0 0 0 .357-1.179l.096-.327-.216-.379c-.469-.822-1.271-3.29-1.405-4.323-.188-1.445-.26-3.251-.173-4.284.077-.903.619-3.047 1.043-4.125a17.5 17.5 0 0 1 2.52-4.322c.809-1.007 2.298-2.334 3.573-3.186 1.992-1.331 4.602-2.249 7.125-2.508.365-.037.943-.053 1.522-.049zm-.152 1.879c-1.178.001-1.746.054-2.783.264-2.338.472-4.646 1.686-6.638 3.491-1.367 1.239-2.529 2.893-3.206 4.564-.119.295-.284.681-.366.859-.171.37-.499 1.63-.643 2.467-.118.688-.207 2.277-.167 2.979.042.72.154 1.544.292 2.142a19 19 0 0 1 .171.817c.067.387.262.974.445 1.339.078.155.199.44.268.633s.214.526.321.74c.107.214.233.499.278.633.083.243.083.244-.081.828a22.1 22.1 0 0 0-.291 1.193c-.07.335-.265 1.069-.432 1.631-.474 1.591-.862 2.999-.833 3.028.034.034 2.555-.56 4.764-1.123l1.787-.455.209.094c.38.171 2.001.805 2.571 1.005 1.018.358 2.148.595 3.262.685.732.059 2.256.025 3-.069a13.278 13.278 0 0 0 6.232-2.448c.674-.485 1.203-.94 1.974-1.696.989-.97 1.425-1.537 2.037-2.649l.448-.814c.077-.14.204-.425.281-.633a30.163 30.163 0 0 1 .333-.847c.232-.562.35-.979.514-1.82.247-1.265.292-1.731.295-3.019.002-1.041-.014-1.317-.109-1.908-.211-1.312-.411-1.999-1.088-3.74-.461-1.185-1.655-2.963-2.582-3.846-1.468-1.397-2.518-2.185-3.789-2.841-2.001-1.032-3.983-1.487-6.475-1.486zm-20.81.325a25 25 0 0 0-.138.215c.046-.072.091-.144.138-.215zm42.355.695c.105.174.203.352.304.528a25 25 0 0 0-.304-.528zm.621 1.089c.06.112.115.227.174.339a25 25 0 0 0-.174-.339zm.565 1.116c.03.063.057.128.086.191a25 25 0 0 0-.086-.191zm-45.296.278a25 25 0 0 0-.053.118l.053-.118zm45.804.863.023.059a25 25 0 0 0-.023-.059zm-47.07 2.507a25 25 0 0 0-.018.062l.018-.062zm48.705 3.394.013.1a25 25 0 0 0-.013-.1zm-31.662 1.035a2.454 2.454 0 0 1 2.441 2.441c0 1.338-1.104 2.441-2.441 2.441s-2.441-1.104-2.441-2.441a2.455 2.455 0 0 1 2.441-2.441zm13.672 0a2.454 2.454 0 0 1 2.441 2.441c0 1.338-1.104 2.441-2.441 2.441s-2.441-1.104-2.441-2.441a2.455 2.455 0 0 1 2.441-2.441zm-6.836.1c1.338 0 2.441 1.104 2.441 2.441s-1.104 2.441-2.441 2.441-2.441-1.104-2.441-2.441 1.104-2.441 2.441-2.441zm24.975.07c.013.129.019.259.03.388a25 25 0 0 0-.03-.388zm-31.811 1.583a.675.675 0 0 0-.688.688c0 .391.298.689.688.689s.688-.298.688-.688a.676.676 0 0 0-.688-.689zm13.672 0a.675.675 0 0 0-.688.688c0 .391.298.689.688.689s.688-.298.688-.688a.676.676 0 0 0-.688-.689zm-6.836.1a.675.675 0 0 0-.688.689c0 .391.298.688.688.688s.688-.298.688-.688-.298-.688-.688-.688zM1.005 32.008a25 25 0 0 0 .018.062l-.018-.062zm47.99 0-.018.062a25 25 0 0 0 .018-.062zm-46.76 3.313a25 25 0 0 0 .053.118 6.115 6.115 0 0 1-.053-.118zm45.529 0-.053.118a25 25 0 0 0 .053-.118zM3.907 38.402a25 25 0 0 0 .138.215l-.138-.215zm42.187 0c-.046.072-.091.144-.138.215a25 25 0 0 0 .138-.215zM6 41.23a25 25 0 0 0 .231.266A25.19 25.19 0 0 1 6 41.23zm37.999 0c-.076.089-.153.178-.231.266a25 25 0 0 0 .231-.266zM8.503 43.769a25 25 0 0 0 .266.231 25.181 25.181 0 0 1-.266-.231zm32.993 0c-.088.078-.177.154-.266.231a25 25 0 0 0 .266-.231zm-30.113 2.187a25 25 0 0 0 .215.138c-.072-.046-.144-.091-.215-.138zm27.234 0-.215.138a25 25 0 0 0 .215-.138zM14.56 47.711a25 25 0 0 0 .118.053l-.118-.053zm20.879 0a6.115 6.115 0 0 1-.118.053 25 25 0 0 0 .118-.053zM17.93 48.978a25 25 0 0 0 .062.018l-.062-.018zm14.14 0a25 25 0 0 1-.062.018l.062-.018z"/>
</svg>