<svg width="50" height="50" viewBox="0 0 50 50" xmlns="http://www.w3.org/2000/svg" fill="#7edbed">
  <path d="M25 0C11.204 0 0 11.204 0 25s11.204 25 25 25 25-11.204 25-25S38.796 0 25 0zm0 1.88c12.78 0 23.12 10.34 23.12 23.12 0 12.78-10.34 23.12-23.12 23.12C12.22 48.12 1.88 37.78 1.88 25 1.88 12.22 12.22 1.88 25 1.88zm-.027 7.403a.788.788 0 0 0-.17.026c-.125.033-2.072 1.307-6.805 4.449l-7.572 5.025c-.823.546-.956.647-1.047.803l-.104.178v10.412l.088.172c.049.094.143.215.21.27.203.165 15.023 9.987 15.157 10.046.156.068.35.071.526.008.16-.058 15.053-9.933 15.234-10.102.25-.232.235.139.235-5.582 0-5.051-.002-5.213-.073-5.35a1.084 1.084 0 0 0-.181-.243c-.082-.077-14.28-9.521-14.998-9.977a.88.88 0 0 0-.5-.135zm-.79 2.262c.038-.015.047.798.047 3.986v4.006l-3.293 2.215a401.685 401.685 0 0 1-3.333 2.232c-.043.016-6.127-4.003-6.1-4.029.037-.036 12.638-8.394 12.68-8.41zm1.606.402.352.012.351.014 6.012 3.99c4.57 3.033 6.002 4 5.967 4.033-.026.024-1.39.934-3.033 2.024A328.758 328.758 0 0 1 32.431 24c-.01 0-1.508-1.003-3.33-2.229l-3.313-2.228v-7.596zm-.764 8.983c.064.024 5.967 4.003 5.967 4.021 0 .01-1.301.882-2.892 1.938l-2.993 1.984-.101.066-2.99-1.986c-1.645-1.091-2.992-1.991-2.993-2.002 0-.034 5.97-4.034 6.002-4.021zm14.12.523c.011 0 .021 1.591.021 3.535 0 1.944-.012 3.534-.027 3.532a212.24 212.24 0 0 1-2.659-1.778c-1.966-1.325-2.62-1.783-2.585-1.814.064-.06 5.224-3.475 5.25-3.475zm-28.258.008c.115.043 5.245 3.478 5.236 3.506-.006.019-1.164.81-2.574 1.76-1.41.949-2.594 1.741-2.631 1.761-.063.035-.066-.143-.066-3.502 0-2.039.015-3.532.035-3.525zm21.54 4.44 2.999 2.017c1.649 1.11 3.02 2.038 3.045 2.062.035.034-1.414 1.013-6.295 4.252a1263.28 1263.28 0 0 1-6.365 4.211c-.013 0-.021-1.834-.02-4.076l.002-4.076 3.215-2.129 3.316-2.195.104-.067zm-14.843.001 3.312 2.198 3.315 2.197.01 4.072c.005 2.24-.004 4.073-.02 4.072-.043 0-12.682-8.392-12.691-8.425-.004-.016 1.36-.95 3.033-2.073l3.041-2.04z"/>
</svg>