<svg width="50" height="50" viewBox="0 0 50 50" fill="#fff" xmlns="http://www.w3.org/2000/svg">
  <path d="M15.051 9.657a3.183 3.24 0 0 0-.706.082 1.048 1.067 0 0 0-.665.6c-.745 1.766-.768 3.723-.244 5.557-1.286 1.584-2.071 3.532-2.062 5.599v.005c.002 4.066 1.281 6.805 3.227 8.47 1.518 1.3 3.347 1.85 5.16 2.206-.106.212-.288.375-.369.6a5.749 5.852 0 0 0-.347 1.988c-2.006-.634-3.591-.347-4.65-.341-.66.003-1.088-.062-1.605-.4-.517-.34-1.164-1.032-1.946-2.428a1.048 1.067 0 0 0-.632-.502 1.048 1.067 0 0 0-.797.103 1.048 1.067 0 0 0-.39 1.455c.876 1.567 1.71 2.56 2.633 3.165s1.897.743 2.744.74c1.545-.008 2.762-.348 4.655.473v2.17a1.048 1.067 0 0 0 1.048 1.066 1.048 1.067 0 0 0 1.047-1.066V36.39a1.048 1.067 0 0 0 0-.072v-1.203a1.048 1.067 0 0 0-.002-.074 3.65 3.715 0 0 1 .213-1.536 3.661 3.727 0 0 1 .807-1.316 1.048 1.067 0 0 0-.622-1.8c-2.109-.267-4.144-.807-5.599-2.052-1.454-1.245-2.48-3.207-2.48-6.843a1.048 1.067 0 0 0 0-.002 1.048 1.067 0 0 0 0-.002 1.048 1.067 0 0 0 0-.002 6.547 6.664 0 0 1 1.807-4.632 1.048 1.067 0 0 0 .223-1.108c-.462-1.264-.414-2.623-.035-3.902.097.014.126.002.253.031.734.166 1.98.627 3.804 1.872a1.048 1.067 0 0 0 .856.144 17.652 17.968 0 0 1 9.234 0 1.048 1.067 0 0 0 .856-.144c1.823-1.245 3.071-1.706 3.803-1.872.128-.03.157-.017.253-.031.38 1.279.429 2.64-.035 3.902a1.048 1.067 0 0 0 .224 1.108 6.548 6.665 0 0 1 1.806 4.596c0 3.667-1.028 5.642-2.48 6.884-1.451 1.243-3.481 1.77-5.584 2.009a1.048 1.067 0 0 0-.637 1.802 3.66 3.725 0 0 1 1.021 2.885 1.048 1.067 0 0 0-.003.083V39.2a1.048 1.067 0 0 0 1.048 1.065 1.048 1.067 0 0 0 1.048-1.066V35.16a5.75 5.854 0 0 0-.325-2.405c-.082-.228-.268-.393-.374-.608 1.812-.339 3.637-.88 5.153-2.177 1.95-1.67 3.228-4.421 3.228-8.518 0-2.052-.786-3.984-2.062-5.557.524-1.834.501-3.79-.243-5.557a1.048 1.067 0 0 0-.666-.6s-.282-.072-.587-.08a4.968 4.968 0 0 0-1.237.136c-.949.214-2.378.877-4.099 1.983a19.335 19.335 0 0 0-9.45 0c-1.721-1.106-3.15-1.769-4.098-1.983a5.255 5.349 0 0 0-1.12-.138Z"/>
</svg>