<svg width="50" height="50" viewBox="0 0 50 50" xmlns="http://www.w3.org/2000/svg"><path d="M25 0c-1.185 0-2.349.09-3.49.25a24.988 25 0 0 0-.133.016 24.807 24.807 0 0 0-3.496.771A25.087 25.087 0 0 0 1.025 17.922 24.807 24.807 0 0 0 .264 21.4a24.988 25 0 0 0-.014.106A25.099 25.099 0 0 0 0 25c0 1.186.09 2.351.25 3.494a24.988 25 0 0 0 .014.106 24.87 24.87 0 0 0 .761 3.478 25.087 25.087 0 0 0 16.856 16.885c1.134.337 2.301.597 3.496.771.044.007.089.01.133.016a24.988 25 0 0 0 .008.002A25.1 25.1 0 0 0 25 50c13.79 0 25-11.21 25-25C50 11.631 39.465.69 26.258.033c-.37-.018-.742-.027-1.115-.03C25.095.004 25.048 0 25 0zM14.707 2.223a24.988 25 0 0 0-.182.082l.182-.082zm-3.082 1.666a24.988 25 0 0 0-.283.181l.283-.181zM8.797 5.977a24.988 25 0 0 0-.322.279c.106-.094.214-.187.322-.28zm-2.55 2.51a24.988 25 0 0 0-.263.302l.262-.303zm-2.19 2.878a24.988 25 0 0 0-.16.248c.052-.083.106-.165.16-.248zm12.812 1.016a3.571 3.571 0 0 1 3.57 3.572 3.571 3.571 0 0 1-3.57 3.57 3.571 3.571 0 1 1 0-7.142zM2.293 14.55a24.988 25 0 0 0-.064.142l.064-.142zm14.576.21a1.19 1.19 0 1 0 1.19 1.192 1.19 1.19 0 0 0-1.19-1.191zm-1.191 5.954h2.38a2.381 2.381 0 0 1 2.381 2.38V35a2.381 2.381 0 0 1-2.38 2.38h-2.381A2.381 2.381 0 0 1 13.297 35V23.096a2.381 2.381 0 0 1 2.38-2.381zm13.869.049a7.738 7.738 0 0 1 7.56 7.736V35a2.381 2.381 0 0 1-2.38 2.38h-1.989a2.381 2.381 0 0 1-2.38-2.38v-6.393a1.095 1.095 0 0 0-.823-1.107 1 1 0 0 0-.797.227 1.012 1.012 0 0 0-.357.773V35A2.381 2.381 0 0 1 26 37.38h-1.988A2.381 2.381 0 0 1 21.63 35v-6.5a7.738 7.738 0 0 1 7.21-7.72 7.738 7.738 0 0 1 .706-.016zm-13.87 2.332V35h2.382V23.096h-2.381zm13.249.066a5.357 5.357 0 0 0-4.914 5.338V35H26v-6.5a3.393 3.393 0 0 1 3.37-3.393 4.44 4.44 0 0 1 .558 0 3.464 3.464 0 0 1 2.81 3.452V35h1.989v-6.5a5.357 5.357 0 0 0-5.801-5.338zM2.229 35.307a24.988 25 0 0 0 .064.142l-.064-.142zm1.667 3.08a24.988 25 0 0 0 .16.248 25.075 25.075 0 0 1-.16-.248zm2.088 2.824a24.988 25 0 0 0 .262.303c-.088-.1-.175-.201-.262-.303zm2.49 2.533a24.988 25 0 0 0 .323.28 25.121 25.121 0 0 1-.322-.28zm2.868 2.186a24.988 25 0 0 0 .283.181c-.095-.06-.19-.12-.283-.181zm3.183 1.765a24.988 25 0 0 0 .182.082l-.182-.082z"/></svg>