<svg width="50" height="50" viewBox="0 0 50 50" fill="#fff" xmlns="http://www.w3.org/2000/svg"><path d="M16.87 12.38c-4.762 0-4.762 7.143 0 7.143a3.571 3.571 0 0 0 0-7.142zm0 2.382c.657 0 1.19.534 1.189 1.191 0 1.06-1.283 1.59-2.032.84-.749-.75-.218-2.031.842-2.031Zm-1.192 5.953a2.381 2.381 0 0 0-2.381 2.38V35a2.381 2.381 0 0 0 2.38 2.38h2.382a2.381 2.381 0 0 0 2.38-2.38V23.096a2.381 2.381 0 0 0-2.38-2.381zm13.164.064A7.738 7.738 0 0 0 21.63 28.5V35a2.381 2.381 0 0 0 2.38 2.38H26A2.381 2.381 0 0 0 28.38 35v-6.5c0-.298.13-.58.358-.773a1 1 0 0 1 .797-.227c.501.129.844.59.822 1.107V35a2.381 2.381 0 0 0 2.381 2.38h1.989a2.381 2.381 0 0 0 2.38-2.38v-6.5c0-4.481-3.794-8.025-8.265-7.72zm-13.164 2.317h2.38V35h-2.38zm13.248.066a5.357 5.357 0 0 1 5.8 5.338V35h-1.988v-6.441a3.464 3.464 0 0 0-2.81-3.452 4.44 4.44 0 0 0-.559 0A3.393 3.393 0 0 0 26 28.5V35h-1.988v-6.5a5.357 5.357 0 0 1 4.914-5.338z"/></svg>