<svg width="50" height="50" viewBox="0 0 50 50" xmlns="http://www.w3.org/2000/svg" fill="#7edbed" >
  <path d="M25 0C11.204 0 0 11.204 0 25s11.204 25 25 25 25-11.204 25-25S38.796 0 25 0zm0 1.88c12.78 0 23.12 10.34 23.12 23.12 0 12.78-10.34 23.12-23.12 23.12C12.22 48.12 1.88 37.78 1.88 25 1.88 12.22 12.22 1.88 25 1.88zm-8.13 10.5a3.571 3.571 0 1 0 0 7.143 3.571 3.571 0 0 0 3.57-3.57 3.571 3.571 0 0 0-3.57-3.572zm0 2.382a1.19 1.19 0 0 1 1.189 1.191 1.19 1.19 0 1 1-1.19-1.191zm-1.192 5.953a2.381 2.381 0 0 0-2.381 2.38V35a2.381 2.381 0 0 0 2.38 2.38h2.382a2.381 2.381 0 0 0 2.38-2.38V23.096a2.381 2.381 0 0 0-2.38-2.381h-2.381zm13.164.064A7.738 7.738 0 0 0 21.63 28.5V35a2.381 2.381 0 0 0 2.38 2.38H26A2.381 2.381 0 0 0 28.38 35v-6.5a1.012 1.012 0 0 1 .358-.773 1 1 0 0 1 .797-.227 1.095 1.095 0 0 1 .822 1.107V35a2.381 2.381 0 0 0 2.381 2.38h1.989a2.381 2.381 0 0 0 2.38-2.38v-6.5a7.738 7.738 0 0 0-8.265-7.72zm-13.164 2.317h2.38V35h-2.38V23.096zm13.248.066a5.357 5.357 0 0 1 5.8 5.338V35h-1.988v-6.441a3.464 3.464 0 0 0-2.81-3.452 4.44 4.44 0 0 0-.559 0A3.393 3.393 0 0 0 26 28.5V35h-1.988v-6.5a5.357 5.357 0 0 1 4.914-5.338z"/>
</svg>