<svg width="50" height="50" xmlns="http://www.w3.org/2000/svg" viewBox="0 0 50 50">
  <path d="M25 0c-1.21 0-2.399.091-3.563.258C9.329 1.991 0 12.417 0 25c0 13.793 11.207 25 25 25s25-11.207 25-25C50 11.951 39.967 1.222 27.205.103a25.397 25.397 0 0 0-.961-.071A24.472 24.472 0 0 0 25 0zm-8.633 9.469c1.06 0 1.206.01 1.44.097.815.305 1.019.6 2.047 2.97a237.589 237.589 0 0 0 1.131 2.556c.674 1.495.749 1.692.785 2.087.051.545-.206 1.244-.562 1.529a66.242 66.242 0 0 1-2.367 1.78c-.501.358-.895.675-.921.739-.085.217.537 1.802 1.147 2.922.788 1.446 1.603 2.519 2.886 3.798 1.449 1.445 2.706 2.338 4.521 3.213 1.123.541 1.799.803 2.071.803h.232l.591-.798c.325-.439.823-1.139 1.107-1.556.567-.833.708-.974 1.232-1.235.292-.145.422-.18.738-.198.222-.013.493.004.644.039.143.034.863.33 1.599.658s1.788.786 2.337 1.019c.549.232 1.347.591 1.773.796.867.419 1.16.658 1.43 1.169.337.636.354.867.199 2.613-.134 1.51-.104 1.446-1.231 2.621-1.224 1.278-2.014 1.88-3.268 2.493-1.007.492-2.521.953-3.097.942-.117-.002-.728-.109-1.357-.239-.629-.129-1.593-.337-2.142-.463-2.93-.669-6.186-2.08-9.168-3.973-1.096-.696-2.713-2.039-3.546-2.947-2.404-2.618-4.075-5.258-5.313-8.392-.644-1.629-.933-2.622-1.478-5.063-.374-1.675-.375-1.681-.373-2.386.001-.602.02-.776.127-1.181.141-.531.699-1.769 1.164-2.582.612-1.069 1.69-2.349 2.675-3.176.691-.58 1.032-.656 2.947-.656zm-.46 1.793c-.33-.003-.605.002-.622.019-.03.03.293.967.63 1.828a34.526 34.526 0 0 0 2.33 4.823c.325.558.285.541.713.287.271-.161 1.028-.837 1.028-.918 0-.047-.781-1.822-1.945-4.423-.354-.79-.675-1.461-.714-1.491-.039-.03-.25-.07-.471-.088-.235-.02-.619-.032-.949-.036zm-2.254 1.177c-.076 0-.832.896-1.124 1.334a7.817 7.817 0 0 0-1.085 2.41c-.192.725-.198.911-.056 1.733.74 4.261 2.225 8.11 4.249 11.015.924 1.326 2.35 2.917 3.518 3.922 1.338 1.152 3.09 2.304 4.75 3.123 2.5 1.234 4.706 1.921 8.739 2.721.251.05.626-.014 1.21-.207a9.508 9.508 0 0 0 3.159-1.784c.248-.212.45-.398.45-.413 0-.041-.178-.122-1.892-.856a76.323 76.323 0 0 1-3.363-1.575l-1.822-.915-.287.239c-.505.42-1.033.626-1.605.626-.264 0-.433-.037-.807-.176-3.243-1.206-5.938-3.079-8.158-5.667-.812-.947-1.912-2.685-2.541-4.016-.416-.881-.787-1.785-.845-2.059-.158-.756.048-1.423.644-2.081l.266-.294-.463-.825a50.003 50.003 0 0 1-2.666-5.657c-.127-.328-.25-.596-.272-.596zm18.838 17.519c-.037-.003-.058.004-.071.017-.171.175-.946 1.286-.946 1.356 0 .114.099.187.706.521a44.7 44.7 0 0 0 4.128 1.969c.542.218 2.132.813 2.186.817.018.001.044-.036.057-.083.013-.047.062-.441.109-.877.12-1.11.213-.985-1.204-1.628a122.918 122.918 0 0 0-4.005-1.741c-.601-.247-.851-.342-.961-.351z"/>
</svg>