<svg width="50" height="50" xmlns="http://www.w3.org/2000/svg" viewBox="0 0 50 50">
  <path d="M25 0a25.1 25.1 0 0 0-3.586.261C10.488 1.835 1.835 10.488.261 21.414A25.1 25.1 0 0 0 0 25a25.1 25.1 0 0 0 .261 3.586c1.574 10.926 10.228 19.58 21.154 21.154 1.171.168 2.367.26 3.585.26 12.575 0 22.996-9.317 24.739-21.414a25.1 25.1 0 0 0 .229-4.833 24.846 24.846 0 0 0-3.774-11.996 25 25 0 0 1 .02.028c-.016-.025-.034-.049-.05-.075a25.065 25.065 0 0 0-.686-1.031l-.13-.183a25.123 25.123 0 0 0-.702-.936l-.012-.016a25 25 0 0 1 .005.007 9.98 9.98 0 0 0-.127-.161l.122.154a25 25 0 0 0-.127-.161 25.168 25.168 0 0 0-.828-.982l-.04-.046c-.31-.346-.626-.687-.954-1.015a25 25 0 0 0-.023-.023 25.381 25.381 0 0 0-1.015-.954l-.046-.04a25.168 25.168 0 0 0-.982-.828 25 25 0 0 0-.161-.127l.154.122-.161-.127a25 25 0 0 1 .007.005l-.016-.012a25.123 25.123 0 0 0-.936-.702l-.183-.13a25.066 25.066 0 0 0-1.031-.686c-.025-.016-.049-.034-.075-.05a25 25 0 0 1 .028.02A24.83 24.83 0 0 0 26.247.032 25.341 25.341 0 0 0 25 0zm2.081.093c.129.011.259.017.388.03a25 25 0 0 0-.388-.03zm-9.089.912a25 25 0 0 0-.062.018l.062-.018zm16.526.879.059.023a25 25 0 0 0-.059-.023zm-19.839.352a25 25 0 0 0-.118.053l.118-.053zm20.848.093c.063.03.128.057.191.087a25 25 0 0 0-.191-.086zm.967.477c.113.059.228.114.339.174a25 25 0 0 0-.339-.174zm.9.491c.176.101.355.199.528.304a25 25 0 0 0-.528-.304zm-25.796.61a25 25 0 0 0-.215.138l.215-.138zM8.77 6.001a25 25 0 0 0-.266.231 25.177 25.177 0 0 1 .266-.231zM6.231 8.504A25 25 0 0 0 6 8.77a25.177 25.177 0 0 1 .231-.266zm-2.187 2.879a25 25 0 0 0-.138.215c.046-.072.091-.144.138-.215zm42.355.695c.105.174.203.352.304.528a25 25 0 0 0-.304-.528zm.621 1.089c.06.112.115.227.174.339a25 25 0 0 0-.174-.339zm.565 1.116c.03.063.057.128.086.191a25 25 0 0 0-.086-.191zm-45.296.278a25 25 0 0 0-.053.118l.053-.118zm36.696.29c.25.053.519.224.628.399.057.092.11.281.123.44.022.261-.012.376-.543 1.833-.312.855-.952 2.717-1.422 4.138a460.495 460.495 0 0 1-1.453 4.312 320.25 320.25 0 0 0-1.011 2.97c-1.772 5.321-2.336 6.943-2.46 7.078-.338.365-1.001.427-1.347.127-.15-.13-4.977-3.522-5.222-3.669-.038-.023-.223.079-.487.268a98.518 98.518 0 0 0-3.59 2.746c-1.58 1.268-2.61 2.053-2.773 2.115a1.096 1.096 0 0 1-.684-.019 1.09 1.09 0 0 1-.283-.211c-.243-.258-.313-.674-.448-2.665-.067-.991-.176-2.437-.242-3.213-.066-.777-.142-1.752-.168-2.167-.065-1.017-.205-2.215-.269-2.302-.057-.078-.867-.493-1.827-.936-.335-.154-1.452-.7-2.483-1.213a394.157 394.157 0 0 0-3.164-1.556c-.71-.343-1.343-.671-1.406-.728-.189-.171-.312-.497-.277-.733.081-.543.378-.725 1.581-.97a844.95 844.95 0 0 0 7.624-1.622c1.419-.308 3.029-.647 3.578-.755a455.677 455.677 0 0 0 9.469-1.989c3.295-.725 8.364-1.72 8.557-1.679zm9.108.573.023.059a25 25 0 0 0-.023-.059zm-15.284 2.468c-.126 0-20.437 4.366-20.685 4.447-.077.025 1.049.604 3.146 1.616 1.081.522 2.162 1.046 2.403 1.165.241.119.482.216.535.216.054 0 3.373-1.636 7.376-3.636 6.981-3.488 7.586-3.807 7.225-3.807zm-31.787.038a25 25 0 0 0-.018.062l.018-.062zm35.759.683c0-.024-.104.027-.231.115-.575.394-4.96 3.494-7.388 5.224a469.039 469.039 0 0 1-3.408 2.411c-.927.64-2.313 1.664-2.313 1.71 0 .095 1.55 1.256 2.499 1.871.287.186 1.042.721 1.677 1.189.635.467 1.776 1.294 2.535 1.837 1.12.801 1.396.979 1.467.941.056-.03.192-.348.379-.888.161-.463.43-1.279.597-1.815.168-.535.694-2.069 1.169-3.408a214.54 214.54 0 0 0 1.451-4.236c.68-2.086 1.566-4.887 1.566-4.951zm12.946 2.711.013.1a25 25 0 0 0-.013-.1zm.149 1.208c.013.128.019.259.029.388a25 25 0 0 0-.03-.388zm-22.767.482c-.099-.005-.437.156-1.495.7-.807.416-2.306 1.176-3.33 1.69s-1.855.956-1.846.983c.047.142.983.558 1.26.56.096.001.85-.515 2.814-1.927 2.179-1.566 2.672-1.94 2.626-1.995-.006-.007-.015-.011-.029-.012zm-7.776 5.057c-.026.027.259 3.325.453 5.243.082.81.149 1.505.149 1.546 0 .04.011.073.025.073.014 0 .578-.434 1.254-.965a501.282 501.282 0 0 1 2.314-1.805c.597-.462 1.079-.859 1.071-.882-.017-.048-1.406-1.07-2.553-1.88-.53-.374-.991-.654-1.391-.844-.571-.272-1.279-.532-1.323-.487zM1.005 32.008a25 25 0 0 0 .018.062l-.018-.062zm47.99 0-.018.062a25 25 0 0 0 .018-.062zm-46.76 3.313a25 25 0 0 0 .053.118 6.115 6.115 0 0 1-.053-.118zm45.529 0-.053.118a25 25 0 0 0 .053-.118zM3.907 38.402a25 25 0 0 0 .138.215l-.138-.215zm42.187 0c-.046.072-.091.144-.138.215a25 25 0 0 0 .138-.215zM6 41.23a25 25 0 0 0 .231.266A25.19 25.19 0 0 1 6 41.23zm37.999 0c-.076.089-.153.178-.231.266a25 25 0 0 0 .231-.266zM8.503 43.769a25 25 0 0 0 .266.231 25.181 25.181 0 0 1-.266-.231zm32.993 0c-.088.078-.177.154-.266.231a25 25 0 0 0 .266-.231zm-30.113 2.187a25 25 0 0 0 .215.138c-.072-.046-.144-.091-.215-.138zm27.234 0-.215.138a25 25 0 0 0 .215-.138zM14.56 47.711a25 25 0 0 0 .118.053l-.118-.053zm20.879 0a6.115 6.115 0 0 1-.118.053 25 25 0 0 0 .118-.053zM17.93 48.978a25 25 0 0 0 .062.018l-.062-.018z"/>
</svg>