<svg width="50" height="50" xmlns="http://www.w3.org/2000/svg" viewBox="0 0 50 50">
  <path d="M25 0C11.204 0 0 11.204 0 25s11.204 25 25 25 25-11.204 25-25S38.796 0 25 0zm0 1.88c12.78 0 23.12 10.34 23.12 23.12S37.78 48.12 25 48.12 1.88 37.78 1.88 25 12.22 1.88 25 1.88zm15.008 11.705c-.193-.041-5.261.954-8.557 1.679a457.053 457.053 0 0 1-9.469 1.989c-.549.107-2.159.447-3.578.755a844.95 844.95 0 0 1-7.624 1.622c-1.203.245-1.499.427-1.581.97-.035.235.088.562.277.733.064.058.697.386 1.406.729.71.343 2.134 1.043 3.165 1.556 1.031.513 2.148 1.059 2.483 1.213.96.443 1.77.858 1.827.936.064.088.204 1.286.269 2.302.027.415.102 1.39.168 2.167.066.776.175 2.222.242 3.213.135 1.991.205 2.407.448 2.665.075.08.203.175.283.211.175.078.504.088.684.02.163-.062 1.192-.847 2.773-2.115a98.518 98.518 0 0 1 3.59-2.746c.264-.189.449-.291.487-.268.245.147 5.072 3.539 5.222 3.669.346.3 1.009.238 1.347-.127.125-.135.688-1.757 2.46-7.078.227-.683.682-2.019 1.011-2.97.329-.951.983-2.891 1.453-4.312a193.604 193.604 0 0 1 1.422-4.138c.531-1.457.565-1.572.543-1.833a1.173 1.173 0 0 0-.123-.44c-.108-.175-.377-.347-.628-.4zm-6.176 3.041c.362 0-.244.319-7.225 3.807-4.003 2-7.322 3.636-7.376 3.636-.054 0-.295-.097-.536-.216-.241-.119-1.322-.643-2.403-1.165-2.097-1.012-3.223-1.59-3.146-1.616.248-.08 20.559-4.447 20.685-4.447zm3.973.721c0 .064-.886 2.866-1.566 4.951-.323.991-.976 2.897-1.451 4.235a141.857 141.857 0 0 0-1.169 3.408 75.106 75.106 0 0 1-.598 1.815c-.188.54-.323.858-.379.888-.07.038-.347-.14-1.467-.941-.759-.543-1.9-1.37-2.535-1.837a50.54 50.54 0 0 0-1.677-1.189c-.949-.615-2.499-1.776-2.499-1.871 0-.046 1.385-1.07 2.313-1.71.402-.277 1.935-1.362 3.408-2.411 2.428-1.73 6.813-4.83 7.388-5.224.127-.087.231-.139.231-.115zm-9.672 4.4c.014.001.023.005.029.012.045.055-.447.429-2.627 1.995-1.964 1.412-2.717 1.927-2.814 1.927-.277-.002-1.212-.418-1.26-.56-.009-.026.822-.468 1.846-.982a467.312 467.312 0 0 0 3.33-1.69c1.058-.545 1.396-.705 1.494-.7zm-7.776 5.057c.043-.046.751.215 1.323.487.4.19.861.47 1.391.844 1.147.809 2.536 1.832 2.553 1.88.008.023-.474.419-1.071.882a500.572 500.572 0 0 0-2.315 1.805c-.676.531-1.24.965-1.254.965-.014 0-.025-.033-.025-.074s-.067-.736-.149-1.546c-.194-1.917-.479-5.215-.453-5.242z"/>
</svg>