<?xml version="1.0" encoding="UTF-8" standalone="no"?>
<svg
   width="128"
   height="128"
   style="enable-background:new 0 0 128 128;"
   version="1.1"
   id="svg675"
   sodipodi:docname="sparkles.svg"
   inkscape:version="1.2.2 (732a01da63, 2022-12-09)"
   inkscape:export-filename="sparkles.png"
   inkscape:export-xdpi="96"
   inkscape:export-ydpi="96"
   xmlns:inkscape="http://www.inkscape.org/namespaces/inkscape"
   xmlns:sodipodi="http://sodipodi.sourceforge.net/DTD/sodipodi-0.dtd"
   xmlns="http://www.w3.org/2000/svg"
   xmlns:svg="http://www.w3.org/2000/svg">
  <defs
     id="defs679" />
  <sodipodi:namedview
     id="namedview677"
     pagecolor="#505050"
     bordercolor="#eeeeee"
     borderopacity="1"
     inkscape:showpageshadow="0"
     inkscape:pageopacity="0"
     inkscape:pagecheckerboard="0"
     inkscape:deskcolor="#505050"
     showgrid="false"
     inkscape:zoom="5.6734271"
     inkscape:cx="62.219889"
     inkscape:cy="69.358431"
     inkscape:window-width="1350"
     inkscape:window-height="1230"
     inkscape:window-x="-8"
     inkscape:window-y="9"
     inkscape:window-maximized="0"
     inkscape:current-layer="svg675" />
  <path
     d="M 80.05,124.24 76.74,101.68 C 75.37,90.57 67.14,81.54 56.21,79.14 L 40.47,75.68 56.21,72.22 C 67.14,69.82 75.37,60.79 76.74,49.68 l 3.31,-26.78 3.31,26.78 c 1.37,11.11 9.6,20.14 20.53,22.54 l 15.74,3.46 -15.74,3.46 c -10.93,2.4 -19.16,11.43 -20.53,22.54 z"
     style="fill:#00e3ff;fill-opacity:1"
     id="path403" />
  <path
     d="m 80.05,103.57 -0.34,-2.29 C 78.17,88.95 68.99,78.88 56.85,76.22 l -2.4,-0.53 2.4,-0.53 C 69,72.49 78.19,62.4 79.71,50.06 l 0.33,-2.68 0.33,2.68 c 1.53,12.35 10.71,22.43 22.86,25.1 l 2.4,0.53 -2.4,0.53 C 91.09,78.89 81.91,88.96 80.37,101.29 l -0.32,2.28 m 0,20.67 3.31,-22.56 c 1.37,-11.11 9.6,-20.14 20.53,-22.54 l 15.74,-3.46 -15.74,-3.46 C 92.96,69.82 84.73,60.79 83.36,49.68 L 80.05,22.9 76.74,49.68 c -1.37,11.11 -9.6,20.14 -20.53,22.54 l -15.74,3.46 15.74,3.47 c 10.93,2.4 19.16,11.43 20.53,22.54 z"
     style="opacity:0.2;fill:#424242"
     id="path405" />
  <path
     d="M 28.87,119.74 27.16,107.7 C 26.45,101.28 22.18,96.06 16.52,94.67 l -8.16,-2 8.16,-2 c 5.66,-1.39 9.93,-6.61 10.64,-13.03 l 1.71,-15.48 1.71,15.49 c 0.71,6.42 4.98,11.64 10.64,13.03 l 8.16,2 -8.16,2 c -5.66,1.39 -9.93,6.61 -10.64,13.03 z"
     style="fill:#6be6ff;fill-opacity:1"
     id="path411" />
  <path
     d="m 28.87,102.28 c -1.73,-4.33 -4.94,-7.8 -8.98,-9.61 4.03,-1.81 7.25,-5.28 8.98,-9.61 1.73,4.33 4.94,7.8 8.98,9.61 -4.04,1.81 -7.26,5.29 -8.98,9.61 m 0,17.46 1.71,-12.04 c 0.71,-6.42 4.98,-11.64 10.64,-13.03 l 8.16,-2 -8.16,-2 C 35.56,89.28 31.29,84.06 30.58,77.64 L 28.87,62.16 27.16,77.64 c -0.71,6.42 -4.98,11.64 -10.64,13.03 l -8.16,2 8.16,2 c 5.66,1.39 9.93,6.61 10.64,13.03 z"
     style="opacity:0.2;fill:#424242"
     id="path413" />
  <path
     d="M 44.5,67.83 42.38,54.91 C 41.5,47.8 36.24,42.02 29.24,40.49 L 19.16,38.28 29.24,36.07 C 36.23,34.53 41.5,28.75 42.38,21.65 L 44.5,4.51 46.62,21.65 c 0.88,7.11 6.14,12.89 13.14,14.42 l 10.08,2.21 -10.08,2.21 C 52.77,42.03 47.5,47.81 46.62,54.91 Z"
     style="fill:#a6fef5;fill-opacity:1"
     id="path417" />
  <path
     d="M 44.5,50.73 C 42.59,44.97 38.12,40.35 32.37,38.28 c 5.75,-2.07 10.22,-6.7 12.13,-12.45 1.91,5.76 6.38,10.38 12.13,12.45 -5.75,2.07 -10.22,6.69 -12.13,12.45 m 0,17.1 2.12,-12.92 C 47.5,47.8 52.76,42.02 59.76,40.49 L 69.84,38.28 59.76,36.07 C 52.77,34.53 47.5,28.75 46.62,21.65 L 44.5,4.51 42.38,21.65 C 41.5,28.76 36.24,34.54 29.24,36.07 l -10.08,2.21 10.08,2.21 c 6.99,1.54 12.26,7.32 13.14,14.42 z"
     style="display:inline;opacity:0.2;fill:#35a9eb;fill-opacity:1"
     id="path419" />
</svg>
