<svg viewBox="0 0 50 50" width="50" height="50" xmlns="http://www.w3.org/2000/svg"><path d="M25 0C11.198 0 -0.012 11.203 -0.012 24.997S11.198 49.994 25 49.994c13.802 0 25.012 -11.203 25.012 -24.997S38.802 0 25 0Zm0 2c12.721 0 23.012 10.284 23.012 22.997S37.722 47.993 25 47.993 1.988 37.709 1.988 24.997C1.988 12.284 12.278 1.999 25 1.999Zm0 2.58c-2.309 0 -4.205 1.895 -4.205 4.203 0.001 2.316 1.895 4.216 4.205 4.216 2.318 0.001 4.217 -1.9 4.217 -4.216 0 -2.309 -1.9 -4.203 -4.217 -4.203zm0 2c1.239 0 2.216 0.98 2.216 2.203a2.2 2.2 0 0 1 -2.216 2.215 1 1 0 0 0 -0.001 0c-1.222 0 -2.204 -0.98 -2.204 -2.216A2.195 2.195 0 0 1 25 6.58ZM36.536 13.918a1 1 0 0 0 -0.959 1l0.918 -0.997 -9.773 0.806h-3.957l-9.175 -0.79a1 1 0 0 0 -0.005 -0.001c-1.32 -0.107 -2.52 0.88 -2.621 2.224 -0.054 0.674 0.099 1.348 0.373 2.039 0.137 0.346 0.307 0.684 0.565 0.995 0.258 0.311 0.652 0.644 1.221 0.689l-0.054 -0.005 6.621 0.898 -0.687 6.207 -3.434 12.99 0.036 -0.108c-0.186 0.476 -0.119 0.999 0.047 1.378 0.165 0.379 0.406 0.662 0.661 0.907a5.011 5.011 0 0 0 1.632 1.037c1.288 0.502 2.804 -0.121 3.315 -1.432a1 1 0 0 0 0.025 -0.072l3.45 -11.345 3.752 11.122 -0.023 -0.078c0.343 1.374 1.781 2.15 3.104 1.819 0.598 -0.15 1.223 -0.448 1.787 -0.898 0.282 -0.225 0.55 -0.488 0.755 -0.845 0.205 -0.357 0.34 -0.861 0.211 -1.364a1 1 0 0 0 -0.011 -0.039L30.346 26.824l-0.77 -6.04 7.243 -0.913a1 1 0 0 0 0.023 -0.027c0.507 -0.06 0.889 -0.33 1.139 -0.609 0.27 -0.301 0.454 -0.63 0.605 -0.971 0.302 -0.68 0.482 -1.347 0.456 -2.023 -0.045 -1.325 -1.184 -2.379 -2.508 -2.324Zm0.086 1.999c0.238 -0.009 0.416 0.156 0.424 0.394a1 1 0 0 0 0 0.007c0.004 0.103 -0.1 0.718 -0.285 1.134 -0.093 0.208 -0.205 0.379 -0.266 0.447 -0.061 0.068 -0.022 -0.013 0.159 -0.02a1 1 0 0 0 -0.959 0.999V17.996l-7.361 0.929a1 1 0 0 0 -0.867 1.119l0.905 7.115a1 1 0 0 0 0.034 0.161l3.946 13.167a1.182 1.182 0 0 1 -0.244 0.252c-0.294 0.234 -0.789 0.464 -1.025 0.523a1 1 0 0 0 -0.001 0c-0.339 0.085 -0.601 -0.056 -0.677 -0.363a1 1 0 0 0 -0.023 -0.078l-4.086 -12.116a1 1 0 0 0 -0.948 -0.68h-1.259a1 1 0 0 0 -0.957 0.709l-3.739 12.3c-0.12 0.297 -0.398 0.415 -0.72 0.289a1 1 0 0 0 -0.001 0c-0.263 -0.102 -0.72 -0.373 -0.974 -0.617a1.005 1.005 0 0 1 -0.19 -0.236l3.448 -13.047a1 1 0 0 0 0.027 -0.146l0.802 -7.25a1 1 0 0 0 -0.859 -1.101l-7.489 -1.016c-0.059 -0.073 -0.159 -0.241 -0.242 -0.449 -0.168 -0.422 -0.246 -1.04 -0.238 -1.143a1 1 0 0 0 0.001 -0.009c0.016 -0.223 0.23 -0.398 0.465 -0.379l9.213 0.793a1 1 0 0 0 0.086 0.004h4.042a1 1 0 0 0 0.082 -0.003z"/></svg>