<svg viewBox="0 0 50 50" xmlns="http://www.w3.org/2000/svg" width="50" height="50"><path d="M25 0C11.193 0 0 11.193 0 25s11.193 25 25 25 25 -11.193 25 -25S38.807 0 25 0Zm-0.379 4.965c1.791 0 3.241 1.449 3.241 3.229a3.239 3.239 0 0 1 -3.241 3.24c-1.779 0 -3.228 -1.45 -3.229 -3.24 0 -1.779 1.449 -3.229 3.229 -3.229zm14.01 10.441 -9.618 1.215 0.004 9.629 4.66 15.555a1.812 1.812 0 0 1 -1.316 2.207c-0.971 0.243 -1.964 -0.292 -2.209 -1.274L25.378 28.578h-1.47l-4.391 14.454c-0.368 0.943 -1.418 1.377 -2.36 1.009 -0.933 -0.364 -1.502 -1.426 -1.134 -2.369L20.055 26.407v-9.785l-8.861 -1.206c-0.91 -0.073 -1.527 -0.874 -1.453 -1.784 0.067 -0.916 0.894 -1.597 1.803 -1.523l10.766 0.927h4.721l11.464 -0.945a1.646 1.646 0 0 1 1.714 1.59c0.037 0.912 -0.667 1.688 -1.578 1.726z"/></svg>