<svg width="50" height="50" xmlns="http://www.w3.org/2000/svg" viewBox="0 0 50 50">
  <path d="M25 0C11.204 0 0 11.204 0 25s11.204 25 25 25 25-11.204 25-25S38.796 0 25 0zm0 1.88c12.78 0 23.12 10.34 23.12 23.12S37.78 48.12 25 48.12 1.88 37.78 1.88 25 12.22 1.88 25 1.88zm.006 7.3a15.969 15.969 0 0 0-1.522.049c-2.523.259-5.133 1.177-7.125 2.508-1.275.851-2.764 2.179-3.573 3.186-1.012 1.26-1.943 2.855-2.52 4.322-.424 1.077-.966 3.222-1.043 4.125-.088 1.034-.015 2.839.173 4.284.134 1.033.936 3.501 1.405 4.323l.216.379-.096.327c-.053.18-.213.71-.357 1.179a29.03 29.03 0 0 0-.441 1.63 77.826 77.826 0 0 1-.563 2.19c-.211.777-.383 1.483-.383 1.569 0 .231.207.761.395 1.01.215.284.53.425 1.017.454.345.02.496-.013 2.775-.615 1.325-.35 2.815-.742 3.311-.872l.901-.236.414.19c1.989.915 4.016 1.433 6.037 1.541 1.732.093 3.693-.112 5.15-.538 2.01-.588 4.179-1.669 5.536-2.76.659-.53 2.145-1.989 2.586-2.541.551-.688 1.784-2.731 2.098-3.475.739-1.751 1.188-3.516 1.326-5.214.076-.928-.021-3.052-.174-3.847-.37-1.915-.972-3.61-1.808-5.088-1.252-2.213-2.896-3.966-5.089-5.424-2.061-1.371-4.607-2.295-7.119-2.584a16.233 16.233 0 0 0-1.528-.07zm-.152 1.879c2.492-.001 4.475.454 6.475 1.486 1.271.656 2.322 1.443 3.789 2.841.927.883 2.122 2.661 2.582 3.846.677 1.741.877 2.428 1.088 3.74.095.591.111.867.109 1.908-.002 1.288-.048 1.754-.295 3.019-.164.841-.282 1.258-.514 1.82a30.163 30.163 0 0 0-.333.847 5.774 5.774 0 0 1-.281.633 586.563 586.563 0 0 0-.448.814c-.612 1.113-1.048 1.679-2.037 2.649-.771.756-1.3 1.211-1.974 1.696a13.285 13.285 0 0 1-6.232 2.448c-.745.093-2.268.128-3 .069a13.239 13.239 0 0 1-3.262-.685c-.57-.2-2.191-.834-2.571-1.005l-.209-.095-1.787.455c-2.209.563-4.73 1.157-4.764 1.123-.028-.028.359-1.436.833-3.028.167-.562.362-1.296.432-1.631.07-.335.201-.871.291-1.193.163-.584.163-.584.08-.828a6.656 6.656 0 0 0-.278-.633 8.18 8.18 0 0 1-.321-.74 6.814 6.814 0 0 0-.268-.633 5.632 5.632 0 0 1-.445-1.339 19 19 0 0 0-.171-.817 13.838 13.838 0 0 1-.292-2.142c-.041-.701.048-2.29.167-2.979.144-.837.472-2.097.643-2.467.082-.178.247-.564.366-.859.677-1.671 1.839-3.325 3.206-4.564 1.991-1.805 4.3-3.019 6.638-3.491 1.037-.209 1.604-.263 2.783-.264zm-6.788 11.302a2.454 2.454 0 0 0-2.441 2.441c0 1.338 1.104 2.441 2.441 2.441s2.441-1.104 2.441-2.441a2.455 2.455 0 0 0-2.441-2.441zm13.672 0a2.454 2.454 0 0 0-2.441 2.441c0 1.338 1.104 2.441 2.441 2.441s2.441-1.104 2.441-2.441a2.455 2.455 0 0 0-2.441-2.441zm-6.836.1c-1.338 0-2.441 1.104-2.441 2.441s1.104 2.441 2.441 2.441 2.441-1.104 2.441-2.441-1.104-2.441-2.441-2.441zm-6.836 1.653c.391 0 .688.298.688.688 0 .391-.298.689-.688.689s-.688-.298-.688-.688c0-.391.298-.689.688-.689zm13.672 0c.391 0 .688.298.688.688 0 .391-.298.689-.688.689s-.688-.298-.688-.688c0-.391.298-.689.688-.689zm-6.836.1c.391 0 .688.298.688.689 0 .391-.298.688-.688.688s-.688-.298-.688-.688.298-.688.688-.688z"/>
</svg>