<svg width="50" height="50" viewBox="0 0 50 50" xmlns="http://www.w3.org/2000/svg">
  <path d="M25 0c-1.186 0-2.351.09-3.494.25a25 25 0 0 0-.106.014 24.807 24.807 0 0 0-6.73 1.976A25.13 25.13 0 0 0 2.24 14.67 24.82 24.82 0 0 0 .264 21.4a25 25 0 0 0-.014.106A25.099 25.099 0 0 0 0 25c0 1.186.09 2.351.25 3.494a25 25 0 0 0 .014.106 24.807 24.807 0 0 0 1.976 6.73 25.13 25.13 0 0 0 12.43 12.43 24.82 24.82 0 0 0 6.73 1.976 25 25 0 0 0 .106.014 24.86 24.86 0 0 0 13.824-1.99 25.13 25.13 0 0 0 12.43-12.43 24.82 24.82 0 0 0 1.976-6.73l.014-.106c.16-1.143.25-2.308.25-3.494a24.852 24.852 0 0 0-4.273-13.973 25 25 0 0 0-.018-.023 25.12 25.12 0 0 0-.68-.957c-.362-.484-.747-.95-1.142-1.406a25 25 0 0 1 .027.037c-.084-.097-.165-.196-.25-.291a25 25 0 0 0-.002-.002c-.055-.062-.106-.128-.162-.19A25.155 25.155 0 0 0 41.805 6.5h-.002c-.061-.056-.126-.107-.188-.162l-.002-.002c-.095-.085-.194-.166-.29-.25a25 25 0 0 1 .036.027c-.456-.395-.922-.78-1.406-1.142h-.002A24.85 24.85 0 0 0 26.275.034 25.33 25.33 0 0 0 25 0zm16.36 6.113c.084.074.17.148.253.223a25 25 0 0 0-.254-.223zm2.304 2.274c.075.084.15.169.223.254a25 25 0 0 0-.223-.254zm-7.205-5.6c.129.067.26.13.387.2a25 25 0 0 0-.387-.2zm.908.494c.184.105.37.207.551.317a25 25 0 0 0-.55-.317zm-25.775.63a25 25 0 0 0-.21.134l.21-.135zm-2.82 2.087a25 25 0 0 0-.27.234l.27-.234zm-2.54 2.504a25 25 0 0 0-.234.27l.234-.27zm18.74.781a.88.88 0 0 1 .5.135c.72.456 14.917 9.9 14.999 9.977.06.055.141.166.181.244.07.136.073.298.073 5.35 0 5.72.014 5.35-.235 5.581-.181.17-15.074 10.044-15.234 10.102a.726.726 0 0 1-.526-.008c-.134-.059-14.954-9.88-15.158-10.047a1.003 1.003 0 0 1-.209-.27l-.088-.171V19.764l.104-.178c.091-.156.224-.257 1.047-.803l7.572-5.025c4.733-3.142 6.68-4.416 6.805-4.45a.788.788 0 0 1 .17-.025zm-20.927 2.1a25 25 0 0 0-.135.209l.135-.21zm20.139.162c-.042.016-12.643 8.374-12.68 8.41-.027.026 6.057 4.045 6.1 4.03.023-.01 1.523-1.014 3.334-2.233l3.292-2.215v-4.006c0-3.188-.009-4-.046-3.986zm1.605.402v7.596l3.313 2.228A419.463 419.463 0 0 0 32.432 24c.01 0 1.362-.891 3.005-1.98 1.644-1.09 3.008-2 3.034-2.024.035-.033-1.397-1-5.967-4.033l-6.012-3.99-.351-.014-.352-.012zm20.613.135c.11.181.212.367.317.55a25 25 0 0 0-.317-.55zm.612 1.072c.068.128.132.258.199.387a25 25 0 0 0-.2-.387zM25.025 20.93c-.033-.013-6.002 3.987-6.002 4.021 0 .01 1.348.91 2.993 2.002l2.99 1.986.101-.066 2.993-1.984c1.59-1.056 2.892-1.927 2.892-1.938 0-.018-5.903-3.997-5.967-4.021zm14.12.523c-.026 0-5.186 3.415-5.25 3.475-.034.031.619.489 2.585 1.814 1.447.975 2.643 1.775 2.659 1.778.015.002.027-1.588.027-3.532s-.01-3.535-.021-3.535zm-28.258.008c-.02-.007-.035 1.486-.035 3.525 0 3.36.003 3.537.066 3.502.037-.02 1.221-.812 2.63-1.761 1.41-.95 2.569-1.741 2.575-1.76.009-.028-5.12-3.463-5.236-3.506zm21.54 4.44-.103.066c-.057.036-1.548 1.025-3.316 2.195l-3.215 2.129-.002 4.076c-.001 2.242.007 4.076.02 4.076.012 0 2.876-1.896 6.365-4.21 4.881-3.24 6.33-4.219 6.295-4.253-.026-.024-1.396-.952-3.045-2.062L32.428 25.9zm-14.843.001-3.041 2.041c-1.672 1.124-3.037 2.057-3.033 2.073.009.033 12.648 8.424 12.691 8.425.016 0 .025-1.832.02-4.072l-.01-4.072-3.315-2.197-3.312-2.198zM3.91 38.408a25 25 0 0 0 .135.21l-.135-.21zm42.18 0-.135.21a25 25 0 0 0 .135-.21zm-40.092 2.82a25 25 0 0 0 .234.27l-.234-.27zm38.004 0-.234.27a25 25 0 0 0 .234-.27zm-35.5 2.54a25 25 0 0 0 .27.234l-.27-.234zm32.996 0-.27.234a25 25 0 0 0 .27-.234zm-30.115 2.187a25 25 0 0 0 .209.135l-.21-.135zm27.234 0-.209.135a25 25 0 0 0 .21-.135z"/>
</svg>