<svg width="50" height="50" xmlns="http://www.w3.org/2000/svg" viewBox="0 0 50 50">
  <path d="M25 0C11.204 0 0 11.204 0 25s11.204 25 25 25 25-11.204 25-25S38.796 0 25 0zm0 1.88c12.78 0 23.12 10.34 23.12 23.12S37.78 48.12 25 48.12 1.88 37.78 1.88 25 12.22 1.88 25 1.88zm-1.607 11.009-11.952.014-.365.158c-.945.408-1.626 1.229-1.829 2.203-.065.313-.074 1.48-.074 9.44 0 5.688.019 9.267.049 9.575.133 1.337.814 2.239 2.024 2.679.2.073.458.094 1.436.119.656.017 6.692.027 13.413.023l12.22-.007.281-.104c.971-.361 1.645-1 1.99-1.888l.135-.348.006-9.562c.006-8.714-.001-9.605-.075-10.049-.1-.601-.252-.882-.742-1.371a2.633 2.633 0 0 0-.823-.585l-.471-.234-1.636-.038c-.9-.021-7.014-.032-13.588-.024zm1.155 1.798c4.334-.002 8.712.005 10.256.025 2.448.031 2.563.036 2.479.118-.171.166-1.79 1.318-2.71 1.928-.513.34-1.392.961-1.954 1.379-.562.418-1.921 1.404-3.019 2.191a1155.289 1155.289 0 0 0-2.97 2.134c-.592.428-1.058.729-1.188.769-.325.099-.718.08-1.027-.049-.155-.065-1.269-.834-2.653-1.833a1618.143 1618.143 0 0 0-4.942-3.546 393.807 393.807 0 0 1-3.383-2.438l-.827-.612 1.946-.03c1.367-.021 5.657-.034 9.991-.036zm-13.399 1.257 1.193.859c.656.472 2.299 1.662 3.651 2.645 1.352.982 2.941 2.123 3.53 2.534a149.35 149.35 0 0 1 2.274 1.628c.662.484 1.365.98 1.563 1.102.957.59 1.959.634 2.96.128.224-.113.769-.47 1.211-.792a113.678 113.678 0 0 1 3.14-2.213 51.688 51.688 0 0 0 1.704-1.217 186.643 186.643 0 0 1 5.209-3.783l1.266-.889.031.256c.054.441.048 17.498-.006 17.929-.066.517-.207.785-.511.973l-.237.146-2.219.031c-2.615.036-19.362.033-22.184-.005l-1.951-.026-.236-.146a.954.954 0 0 1-.349-.361l-.113-.215.005-9.036c.003-4.97.019-9.151.037-9.291l.032-.256zm7.571 11.948c-3.83 0-4.733.012-4.885.066-.222.078-.496.309-.595.499-.144.279-.064.681.191.962.222.245.343.274 1.248.302 1.234.038 3.835.042 5.01.005.953-.03 1.01-.037 1.173-.149a.9.9 0 0 0 .421-.74c.018-.254.005-.312-.113-.482a1.075 1.075 0 0 0-.408-.328l-.274-.134h-1.769zm0 3.071c-3.83 0-4.733.012-4.885.066-.222.078-.496.309-.595.499-.144.279-.064.681.191.961.222.245.343.274 1.248.302 1.234.038 6.764.042 7.939.005.953-.03 1.01-.037 1.173-.149a.9.9 0 0 0 .421-.74c.018-.254.005-.312-.113-.482a1.075 1.075 0 0 0-.408-.328l-.274-.134h-4.698z"/>
</svg>