<svg width="50" height="50" xmlns="http://www.w3.org/2000/svg" viewBox="0 0 50 50">
  <path d="M25 0a25.1 25.1 0 0 0-3.586.261C10.488 1.835 1.835 10.488.261 21.414A25.1 25.1 0 0 0 0 25a25.1 25.1 0 0 0 .261 3.586c1.574 10.926 10.228 19.58 21.154 21.154 1.171.168 2.367.26 3.585.26 12.575 0 22.996-9.317 24.739-21.414a25.1 25.1 0 0 0 .229-4.833 24.846 24.846 0 0 0-3.774-11.996 25 25 0 0 1 .02.028c-.016-.025-.034-.049-.05-.075a25.065 25.065 0 0 0-.686-1.031l-.13-.183a25.123 25.123 0 0 0-.702-.936l-.012-.016a25 25 0 0 1 .005.007 9.98 9.98 0 0 0-.127-.161l.122.154a25 25 0 0 0-.127-.161 25.168 25.168 0 0 0-.828-.982l-.04-.046c-.31-.346-.626-.687-.954-1.015a25 25 0 0 0-.023-.023 25.381 25.381 0 0 0-1.015-.954l-.046-.04a25.168 25.168 0 0 0-.982-.828 25 25 0 0 0-.161-.127l.154.122-.161-.127a25 25 0 0 1 .007.005l-.016-.012a25.123 25.123 0 0 0-.936-.702l-.183-.13a25.066 25.066 0 0 0-1.031-.686c-.025-.016-.049-.034-.075-.05a25 25 0 0 1 .028.02A24.83 24.83 0 0 0 26.247.032 25.341 25.341 0 0 0 25 0zm2.081.093c.129.011.259.017.388.03a25 25 0 0 0-.388-.03zm-9.089.912a25 25 0 0 0-.062.018l.062-.018zm16.526.879.059.023a25 25 0 0 0-.059-.023zm-19.839.352a25 25 0 0 0-.118.053l.118-.053zm20.848.093c.063.03.128.057.191.087a25 25 0 0 0-.191-.086zm.967.477c.113.059.228.114.339.174a25 25 0 0 0-.339-.174zm.9.491c.176.101.355.199.528.304a25 25 0 0 0-.528-.304zm-25.796.61a25 25 0 0 0-.215.138l.215-.138zM8.77 6.001a25 25 0 0 0-.266.231 25.177 25.177 0 0 1 .266-.231zM6.231 8.504A25 25 0 0 0 6 8.77a25.177 25.177 0 0 1 .231-.266zm-2.187 2.879a25 25 0 0 0-.138.215c.046-.072.091-.144.138-.215zm42.355.695c.105.174.203.352.304.528a25 25 0 0 0-.304-.528zm-23.006.811c6.574-.008 12.688.003 13.588.024l1.636.038.471.234c.37.183.547.31.823.585.49.489.642.77.742 1.371.074.443.08 1.335.075 10.049l-.006 9.562-.135.348c-.345.888-1.018 1.527-1.99 1.888l-.281.104-12.22.007c-6.721.004-12.757-.006-13.413-.023-.978-.025-1.237-.046-1.436-.119-1.21-.44-1.892-1.343-2.024-2.679-.03-.307-.049-3.886-.049-9.575 0-7.961.009-9.128.074-9.44.203-.974.885-1.794 1.829-2.203l.365-.158 11.952-.014zm23.627.278c.06.112.115.227.174.339a25 25 0 0 0-.174-.339zm.565 1.116c.03.063.057.128.086.191a25 25 0 0 0-.086-.191zm-45.296.278a25 25 0 0 0-.053.118l.053-.118zm22.26.126c-4.334.002-8.624.015-9.991.036l-1.946.03.827.612c.455.337 1.977 1.434 3.383 2.438a1617.806 1617.806 0 0 1 4.941 3.546c1.384.998 2.498 1.768 2.653 1.833.309.129.702.148 1.027.049.131-.04.596-.341 1.188-.769.536-.387 1.872-1.348 2.97-2.134a292.346 292.346 0 0 0 3.019-2.191 54.6 54.6 0 0 1 1.954-1.379c.92-.61 2.539-1.762 2.71-1.928.084-.081-.031-.087-2.479-.118-1.544-.02-5.922-.027-10.256-.025zm23.544.738.023.059a25 25 0 0 0-.023-.059zm-36.944.521-.032.256c-.017.141-.034 4.322-.037 9.291l-.005 9.036.113.215a.954.954 0 0 0 .349.361l.236.146 1.951.026c2.822.037 19.569.041 22.184.005l2.219-.031.237-.146c.304-.188.445-.457.511-.973.055-.431.061-17.487.006-17.929l-.031-.256-1.266.889a185.159 185.159 0 0 0-5.209 3.783c-.375.286-1.142.833-1.704 1.217a110.13 110.13 0 0 0-3.14 2.213c-.442.322-.987.679-1.211.792-1.001.506-2.003.462-2.96-.128a39.731 39.731 0 0 1-1.563-1.102 162.333 162.333 0 0 0-2.274-1.628 323.774 323.774 0 0 1-3.53-2.534 1715.54 1715.54 0 0 0-3.651-2.645l-1.193-.859zM1.023 17.93a25 25 0 0 0-.018.062l.018-.062zm48.705 3.394.013.1a25 25 0 0 0-.013-.1zm.149 1.208c.013.128.019.259.029.388a25 25 0 0 0-.03-.388zm-31.158 5.361h1.769l.274.134c.178.087.321.202.408.328.118.17.132.228.113.482a.9.9 0 0 1-.421.74c-.163.112-.22.119-1.173.149a111.65 111.65 0 0 1-5.01-.005c-.905-.028-1.026-.057-1.248-.302-.255-.28-.335-.683-.191-.962.098-.19.373-.42.595-.499.152-.054 1.055-.066 4.885-.066zm0 3.071h4.698l.274.134c.178.087.321.202.408.328.118.17.132.228.113.482a.9.9 0 0 1-.421.74c-.163.112-.22.119-1.173.149-1.175.037-6.705.033-7.939-.005-.905-.028-1.026-.058-1.248-.302-.255-.28-.335-.683-.191-.961.098-.19.373-.42.595-.499.152-.054 1.055-.066 4.885-.066zM1.005 32.008a25 25 0 0 0 .018.062l-.018-.062zm47.99 0-.018.062a25 25 0 0 0 .018-.062zm-46.76 3.313a25 25 0 0 0 .053.118 6.115 6.115 0 0 1-.053-.118zm45.529 0-.053.118a25 25 0 0 0 .053-.118zM3.907 38.402a25 25 0 0 0 .138.215l-.138-.215zm42.187 0c-.046.072-.091.144-.138.215a25 25 0 0 0 .138-.215zM6 41.23a25 25 0 0 0 .231.266A25.19 25.19 0 0 1 6 41.23zm37.999 0c-.076.089-.153.178-.231.266a25 25 0 0 0 .231-.266zM8.503 43.769a25 25 0 0 0 .266.231 25.181 25.181 0 0 1-.266-.231zm32.993 0c-.088.078-.177.154-.266.231a25 25 0 0 0 .266-.231zm-30.113 2.187a25 25 0 0 0 .215.138c-.072-.046-.144-.091-.215-.138zm27.234 0-.215.138a25 25 0 0 0 .215-.138zM14.56 47.711a25 25 0 0 0 .118.053l-.118-.053zm20.879 0a6.115 6.115 0 0 1-.118.053 25 25 0 0 0 .118-.053zM17.93 48.978a25 25 0 0 0 .062.018l-.062-.018z"/>
</svg>