<svg width="50" height="50" xmlns="http://www.w3.org/2000/svg" viewBox="0 0 50 50">
  <path d="M25 0a25.1 25.1 0 0 0-3.586.261C9.317 2.004 0 12.425 0 25v.005a25 25.006 0 0 0 0 .001 25 25.006 0 0 0 0 .002v.001c0 1.187.089 2.353.25 3.496 1.538 10.922 10.146 19.593 21.04 21.219a25 25.006 0 0 0 .399.051 25.125 25.125 0 0 0 3.067.22 25 25.006 0 0 0 .244.017 25 25.006 0 0 0 .244-.017c12.493-.12 22.809-9.431 24.506-21.489.161-1.147.25-2.316.25-3.506 0-.057-.004-.112-.004-.169a28.275 28.275 0 0 0-.02-.773 25 25.006 0 0 0-.008-.297 24.857 24.857 0 0 0-4.395-12.948 25 25.006 0 0 1 .019.024c-.032-.047-.067-.092-.1-.138a24.357 24.357 0 0 0-.567-.783l-.095-.121a24.188 24.188 0 0 0-.633-.794l-.068-.078a25.171 25.171 0 0 0-.371-.428 25 25.006 0 0 0-.12-.139l-.208-.233-.003-.003a25.294 25.294 0 0 0-1.847-1.814 25 25.006 0 0 0-.181-.157 25.159 25.159 0 0 0-1.181-.969c-.074-.057-.145-.116-.219-.172-.201-.151-.407-.294-.612-.439-.107-.075-.211-.155-.319-.229a25 25.006 0 0 1 .029.022 24.855 24.855 0 0 0-12.85-4.33A25.341 25.341 0 0 0 25 0zm2.081.093c.129.011.259.017.388.03a25 25.006 0 0 0-.388-.03zm-9.095.913a25 25.006 0 0 0-.052.015l.052-.015zm-3.312 1.231a25 25.006 0 0 0-.109.049l.109-.049zm20.916.119c.038.018.078.034.117.053a25 25.006 0 0 0-.117-.053zm.968.481c.088.046.178.089.265.136a25 25.006 0 0 0-.265-.136zm.915.504c.145.084.293.164.436.251a25 25.006 0 0 0-.436-.251zm.845.51c.216.136.433.271.644.413a25 25.006 0 0 0-.644-.413zm-26.73.061a25 25.006 0 0 0-.196.125l.196-.126zM8.757 6.011a25 25.006 0 0 0-.242.21l.242-.21zM6.219 8.518a25 25.006 0 0 0-.208.24l.208-.24zm19.025.659c.576.017 1.158.084 1.752.201 1.103.217 2.694.852 3.784 1.51 1.229.742 2.558 2.116 3.361 3.475.488.826 1.093 2.402 1.231 3.207.084.488.117 2.61.051 3.245-.188 1.8-1.005 4.005-2.074 5.598a46.539 46.539 0 0 1-1.341 1.817c-.513.665-.924 1.216-.915 1.225.02.019.905.106 1.526.15.34.024.491.059.674.158.29.156.617.513.707.768.088.251 1.221 2.537 1.687 3.404.202.375.467.901.59 1.168.123.268.557 1.155.965 1.972 1.034 2.071 1.061 2.166.767 2.792-.185.394-.357.59-.635.725l-.228.11-12.05.007c-6.627.004-12.126-.009-12.22-.028-.349-.07-.716-.374-.915-.755-.105-.201-.129-.314-.13-.612-.002-.442.091-.745.418-1.368.132-.252.516-1.016.853-1.699.337-.683.688-1.384.781-1.558.093-.174.443-.875.778-1.558s.653-1.318.706-1.412c.053-.094.236-.456.406-.805.246-.505.359-.682.558-.868.405-.379.556-.424 1.628-.481.512-.027.939-.057.949-.066.034-.03-.42-.629-.819-1.081a10.34 10.34 0 0 1-.728-.949 22.217 22.217 0 0 0-.658-.934 7.526 7.526 0 0 1-.588-.949 22.88 22.88 0 0 0-.428-.812 4.78 4.78 0 0 1-.304-.706 24.967 24.967 0 0 0-.301-.846c-.194-.511-.346-1.184-.527-2.337-.143-.91-.142-1.339.002-2.866.063-.664.093-.796.362-1.595.161-.479.388-1.074.504-1.321.432-.922 1.142-1.916 1.956-2.737.876-.883 1.55-1.368 2.726-1.96 1.745-.878 3.411-1.281 5.137-1.231zm-.4 1.859c-2.076.029-3.993.727-5.526 2.025-1.624 1.375-2.586 2.978-2.871 4.786-.123.777-.122 2.642.002 3.307.13.699.312 1.384.504 1.899.193.517.812 1.78 1.074 2.191.21.329 1.285 1.773 1.885 2.532a92.054 92.054 0 0 1 .851 1.096c.225.295.749.961 1.166 1.48s1.01 1.279 1.318 1.687c.558.739 1.701 2.114 1.759 2.115.017 0 .061-.04.097-.091.037-.05.282-.347.546-.66.263-.313.713-.879 1-1.26a74.232 74.232 0 0 1 1.025-1.324c.277-.348.884-1.137 1.348-1.753.464-.616.982-1.284 1.153-1.485a33.67 33.67 0 0 0 1.75-2.332c.391-.593.935-1.681 1.154-2.311a9.716 9.716 0 0 0 .573-3.074c.048-1.6-.312-3.253-.945-4.332-.261-.445-.841-1.221-1.257-1.679-1.494-1.649-3.471-2.615-5.708-2.787a10.058 10.058 0 0 0-.899-.029zm20.898.014c.119.176.23.358.345.537a25 25.006 0 0 0-.345-.537zm-41.709.351a25 25.006 0 0 0-.116.181l.116-.181zm42.383.706c.064.105.122.214.184.32a25 25.006 0 0 0-.185-.32zm.621 1.092.069.135a25 25.006 0 0 0-.069-.135zM2.28 14.579a25 25.006 0 0 0-.038.084l.038-.084zm22.671.069c2.819 0 5.127 2.308 5.127 5.127s-2.308 5.127-5.127 5.127-5.127-2.308-5.127-5.127 2.308-5.127 5.127-5.127zm0 2.104a3.007 3.007 0 0 0-3.023 3.023 3.007 3.007 0 0 0 3.023 3.023 3.007 3.007 0 0 0 3.023-3.023 3.007 3.007 0 0 0-3.023-3.023zM1.018 17.946a25 25.006 0 0 0-.009.032l.009-.032zm-.759 3.48a25 25.006 0 0 0-.007.055l.007-.055zm49.619 1.119c.007.072.01.145.017.217a25 25.006 0 0 0-.017-.217zm-19.693 8.849c-.23.002-.402.008-.46.019-.2.037-.247.079-.649.575-.238.294-.743.94-1.122 1.436a48.674 48.674 0 0 1-1.08 1.364 29.74 29.74 0 0 0-.825 1.04c-.46.612-.61.739-.93.787-.411.062-.566-.028-1.034-.598a95.807 95.807 0 0 0-.841-1.008 52.828 52.828 0 0 1-1.3-1.658c-1.511-1.997-1.419-1.891-1.668-1.937-.231-.043-2.346-.008-2.619.044-.158.03-.183.075-1.236 2.179a198.734 198.734 0 0 0-1.51 3.073 20.82 20.82 0 0 1-.602 1.199c-.154.253-.41.858-.41.968 0 .085 10.558.087 18.489.004 2.015-.021 3.677-.051 3.693-.067.016-.016-.416-.901-.959-1.967-1.422-2.79-1.546-3.038-2.131-4.256-.515-1.074-.533-1.102-.694-1.132-.208-.039-1.421-.069-2.112-.064zm-29.188.591a25 25.006 0 0 0 .033.116 17.718 17.718 0 0 0-.033-.116zm48.003 0c-.011.039-.021.078-.033.116a25 25.006 0 0 0 .033-.116zM2.218 35.284a25 25.006 0 0 0 .092.203l-.092-.203zm45.563 0-.092.203a25 25.006 0 0 0 .092-.203zm-43.906 3.07a25 25.006 0 0 0 .208.324 25.052 25.052 0 0 1-.208-.324zm42.25 0a25.047 25.047 0 0 1-.208.324 25 25.006 0 0 0 .208-.324zM5.949 41.171a25 25.006 0 0 0 .343.395 25.175 25.175 0 0 1-.343-.396zm38.102 0a25.176 25.176 0 0 1-.343.395 25 25.006 0 0 0 .343-.396zm-35.62 2.535a25 25.006 0 0 0 .422.365 25.18 25.18 0 0 1-.422-.365zm33.138 0a25.186 25.186 0 0 1-.422.365 25 25.006 0 0 0 .422-.365zm-30.282 2.188a25 25.006 0 0 0 .419.269 25.044 25.044 0 0 1-.419-.269zm27.426 0a25.044 25.044 0 0 1-.419.269 25 25.006 0 0 0 .419-.269zm-24.268 1.764a25 25.006 0 0 0 .371.168 24.744 24.744 0 0 1-.371-.168zm21.111 0c-.123.058-.247.113-.371.168a25 25.006 0 0 0 .371-.168zm-17.748 1.285a25 25.006 0 0 0 .347.099c-.116-.033-.232-.064-.347-.099z"/>
</svg>