<svg width="50" height="50" xmlns="http://www.w3.org/2000/svg" viewBox="0 0 50 50">
  <path d="M25 0C11.204 0 0 11.204 0 25s11.204 25 25 25 25-11.204 25-25S38.796 0 25 0zm0 1.88c12.78 0 23.12 10.34 23.12 23.12S37.78 48.12 25 48.12 1.88 37.78 1.88 25 12.22 1.88 25 1.88zm.244 7.297c-1.727-.05-3.392.353-5.137 1.231-1.176.592-1.85 1.076-2.726 1.96-.814.821-1.525 1.815-1.956 2.737-.116.248-.343.842-.504 1.321-.269.799-.299.931-.362 1.594-.145 1.526-.145 1.956-.002 2.866.181 1.153.332 1.826.527 2.337a24.967 24.967 0 0 1 .301.846c.074.224.211.542.304.706.093.164.286.53.428.812.142.283.407.71.588.949.181.24.477.66.658.934.181.274.508.701.728.949.399.451.853 1.05.819 1.081-.01.009-.437.038-.949.066-1.072.057-1.222.102-1.628.481-.198.186-.312.362-.558.868-.17.349-.352.711-.406.805-.053.094-.371.729-.706 1.412a87.355 87.355 0 0 1-.778 1.558c-.093.174-.444.875-.781 1.558s-.721 1.447-.853 1.699c-.327.623-.42.926-.418 1.368.001.298.025.411.13.612.199.381.566.685.915.755.094.019 5.593.031 12.22.028l12.05-.007.228-.11c.277-.134.45-.331.635-.725.294-.626.268-.721-.767-2.792-.408-.817-.842-1.704-.965-1.972a24.985 24.985 0 0 0-.59-1.168c-.466-.867-1.599-3.153-1.687-3.404-.089-.255-.417-.612-.707-.768-.183-.099-.334-.134-.674-.158-.621-.044-1.506-.131-1.526-.15-.009-.009.402-.56.915-1.225a46.539 46.539 0 0 0 1.341-1.817c1.07-1.593 1.887-3.798 2.074-5.598.066-.635.033-2.756-.051-3.245-.138-.805-.743-2.381-1.232-3.207-.803-1.358-2.132-2.732-3.361-3.475-1.09-.658-2.681-1.293-3.784-1.51a10.671 10.671 0 0 0-1.752-.201zm-.4 1.859a9.866 9.866 0 0 1 .899.029c2.236.173 4.213 1.138 5.708 2.787.415.458.996 1.234 1.257 1.679.633 1.079.993 2.732.945 4.332a9.688 9.688 0 0 1-.573 3.074c-.219.63-.763 1.718-1.154 2.311a33.67 33.67 0 0 1-1.75 2.332c-.17.201-.689.869-1.153 1.485-.464.616-1.07 1.405-1.348 1.753a74.241 74.241 0 0 0-1.025 1.324c-.286.38-.736.947-1 1.26-.263.313-.509.609-.546.66-.037.05-.08.091-.097.091-.058-.001-1.201-1.375-1.759-2.115a89.915 89.915 0 0 0-1.318-1.687 99.368 99.368 0 0 1-1.166-1.48 92.09 92.09 0 0 0-.851-1.096c-.6-.758-1.676-2.203-1.885-2.532-.262-.41-.881-1.674-1.074-2.191-.192-.514-.374-1.2-.504-1.899-.124-.665-.125-2.53-.002-3.307.286-1.808 1.248-3.411 2.871-4.786 1.533-1.298 3.45-1.996 5.526-2.025zm.107 3.612c-2.819 0-5.127 2.308-5.127 5.127s2.308 5.127 5.127 5.127 5.127-2.308 5.127-5.127-2.308-5.127-5.127-5.127zm0 2.104a3.007 3.007 0 0 1 3.023 3.023 3.007 3.007 0 0 1-3.023 3.023 3.007 3.007 0 0 1-3.023-3.023 3.007 3.007 0 0 1 3.023-3.023zm5.235 14.641c.691-.006 1.904.025 2.112.064.161.03.178.059.694 1.132.585 1.219.709 1.466 2.131 4.256.543 1.066.975 1.951.959 1.967-.016.016-1.678.046-3.693.067-7.931.083-18.489.081-18.489-.004 0-.11.256-.715.41-.968.092-.151.363-.69.602-1.199.24-.509.919-1.892 1.51-3.073 1.052-2.104 1.078-2.149 1.236-2.179.273-.052 2.388-.088 2.619-.044.249.047.157-.06 1.668 1.937a50.534 50.534 0 0 0 1.3 1.658 95.807 95.807 0 0 1 .841 1.008c.468.57.623.66 1.034.598.32-.048.47-.175.93-.787.238-.317.609-.785.825-1.04.215-.255.701-.869 1.08-1.364.379-.495.884-1.141 1.122-1.436.402-.496.449-.538.649-.575.057-.011.23-.017.46-.019z"/>
</svg>