<?xml version="1.0" encoding="UTF-8"?>
<svg width="1200pt" height="1200pt" version="1.1" viewBox="0 0 1200 1200" xmlns="http://www.w3.org/2000/svg">
 <path d="m598.36 0c-330.47 0-598.36 267.89-598.36 598.36s267.89 598.36 598.36 598.36 598.36-267.89 598.36-598.36-267.9-598.36-598.36-598.36zm-9.0703 118.84c42.863 0 77.566 34.691 77.566 77.281 0 42.863-34.703 77.555-77.566 77.555-42.562 0-77.258-34.703-77.281-77.555 0-42.59 34.691-77.281 77.281-77.281zm335.32 249.9-230.21 29.09 0.097657 230.45 111.53 372.3c5.8906 23.508-8.2422 47.027-31.5 52.836-23.242 5.8086-47.016-6.9961-52.871-30.504l-114.26-338.91h-35.184l-105.11 345.94c-8.7969 22.57-33.938 32.953-56.484 24.156-22.332-8.7109-35.965-34.129-27.156-56.699l96.543-365.36v-234.21l-212.09-28.859c-21.77-1.7539-36.551-20.914-34.777-42.684 1.5977-21.938 21.395-38.219 43.152-36.469l257.68 22.188h113l274.39-22.621c21.805-0.875 40.285 16.078 41.016 38.051 0.87891 21.816-15.961 40.406-37.773 41.305z"/>
</svg>
