<svg width="50" height="50" xmlns="http://www.w3.org/2000/svg" viewBox="0 0 50 50">
  <path d="M25 0C11.204 0 0 11.204 0 25s11.204 25 25 25 25-11.204 25-25S38.796 0 25 0zm0 1.88c12.78 0 23.12 10.34 23.12 23.12S37.78 48.12 25 48.12 1.88 37.78 1.88 25 12.22 1.88 25 1.88zm-8.633 7.59c-1.914 0-2.256.076-2.947.656-.985.827-2.063 2.107-2.675 3.176-.465.813-1.023 2.051-1.164 2.582-.107.405-.126.579-.127 1.181-.001.704 0 .71.373 2.385.544 2.441.834 3.434 1.478 5.063 1.238 3.134 2.91 5.774 5.313 8.392.833.908 2.45 2.251 3.546 2.947 2.983 1.893 6.239 3.304 9.168 3.973.549.125 1.513.334 2.142.463s1.24.236 1.357.239c.576.011 2.09-.45 3.097-.942 1.254-.613 2.043-1.215 3.267-2.493 1.126-1.176 1.096-1.112 1.231-2.621.155-1.746.138-1.978-.199-2.613-.271-.512-.563-.75-1.43-1.169a49.496 49.496 0 0 0-1.773-.797c-.549-.232-1.601-.69-2.337-1.019-.736-.328-1.456-.624-1.599-.658a2.598 2.598 0 0 0-.644-.039 1.534 1.534 0 0 0-.738.198c-.524.26-.664.401-1.232 1.235a58.838 58.838 0 0 1-1.107 1.556l-.591.798h-.232c-.273 0-.948-.262-2.071-.803-1.816-.875-3.072-1.768-4.521-3.213-1.283-1.279-2.099-2.353-2.886-3.798-.61-1.12-1.232-2.705-1.147-2.922.025-.064.419-.38.921-.739a64.201 64.201 0 0 0 2.367-1.78c.356-.284.613-.983.562-1.529-.037-.394-.111-.592-.785-2.087a237.572 237.572 0 0 1-1.131-2.556c-1.028-2.369-1.232-2.665-2.047-2.97-.233-.087-.38-.097-1.44-.097zm-.46 1.793c.33.003.714.016.949.036.22.018.432.058.471.088.039.03.36.701.714 1.491 1.165 2.601 1.945 4.376 1.945 4.423 0 .081-.756.757-1.028.918-.428.254-.388.271-.713-.287a34.526 34.526 0 0 1-2.33-4.823c-.337-.861-.66-1.798-.63-1.828.017-.017.292-.022.622-.019zm-2.254 1.177c.022 0 .144.268.272.596a50.187 50.187 0 0 0 2.666 5.657l.463.825-.266.294c-.596.659-.802 1.325-.644 2.081.058.275.428 1.179.845 2.059.629 1.331 1.728 3.069 2.541 4.016 2.22 2.588 4.915 4.461 8.158 5.667.374.139.543.176.807.176.572 0 1.1-.206 1.605-.627l.287-.239 1.822.915a74.09 74.09 0 0 0 3.363 1.575c1.714.735 1.892.815 1.892.856 0 .016-.203.202-.45.413a9.49 9.49 0 0 1-3.159 1.784c-.584.192-.959.257-1.21.207-4.033-.8-6.239-1.487-8.739-2.721-1.659-.819-3.412-1.971-4.75-3.123-1.167-1.005-2.594-2.595-3.518-3.922-2.024-2.905-3.508-6.754-4.249-11.015-.143-.822-.137-1.009.056-1.733a7.77 7.77 0 0 1 1.085-2.41c.293-.438 1.048-1.334 1.124-1.334zm18.838 17.519c.11.009.36.104.961.351 1.208.497 2.532 1.073 4.005 1.741 1.417.643 1.324.518 1.204 1.628-.047.435-.096.83-.109.877-.013.047-.039.084-.057.083-.054-.004-1.644-.599-2.186-.817a44.7 44.7 0 0 1-4.128-1.969c-.607-.334-.706-.406-.706-.521 0-.07.774-1.181.946-1.356.013-.013.034-.02.071-.017z"/>
</svg>