<svg viewBox="0 0 50 50" xmlns="http://www.w3.org/2000/svg" width="50" height="50"><path d="m27.654-.023-4.857.076a3.367 3.367 0 0 0-3.299 3.388v.006l.05 2.897a19.052 19.052 0 0 0-3.282 1.279L13.92 5.346h-.002a3.355 3.355 0 0 0-4.732.07l-3.387 3.5-.002.002c-1.268 1.318-1.249 3.45.074 4.727l2.074 2.013a19.184 19.184 0 0 0-1.408 3.227l-3.273.054c-1.837.027-3.311 1.569-3.287 3.397v.002L.054 27.2v.006a3.366 3.366 0 0 0 3.418 3.28l2.886-.042a19.365 19.365 0 0 0 1.288 3.291l-2.278 2.35a3.359 3.359 0 0 0 .07 4.734l3.499 3.387.001.002c1.323 1.273 3.459 1.241 4.735-.082l.002-.002 2.008-2.072a19.155 19.155 0 0 0 3.226 1.406l.055 3.275v.002a3.364 3.364 0 0 0 3.396 3.287l4.862-.076a3.351 3.351 0 0 0 3.281-3.388l-.045-2.893a19.613 19.613 0 0 0 3.277-1.287l2.348 2.28.002.001a3.371 3.371 0 0 0 4.727-.068l.004-.004 3.386-3.5-.004.002a3.354 3.354 0 0 0-.07-4.732l-2.072-2.012a19.282 19.282 0 0 0 1.408-3.229l3.273-.054h.002a3.362 3.362 0 0 0 3.286-3.397l-.077-4.861c-.025-1.839-1.566-3.314-3.396-3.29h-.002l-2.89.042a19.702 19.702 0 0 0-1.288-3.278l2.28-2.35.001-.001c1.27-1.318 1.252-3.452-.072-4.729l-.002-.002-3.496-3.386-.002-.002c-1.317-1.27-3.45-1.251-4.726.072l-2.012 2.074a19.244 19.244 0 0 0-3.235-1.414l-.054-3.275v-.008a3.374 3.374 0 0 0-3.394-3.28zm.028 2.037a1.307 1.307 0 0 1 1.334 1.293l.064 3.927.744.95h-.004l.004.002h.002a17.247 17.247 0 0 1 4.233 1.85l.011.007.014.008 1.225-.166 2.507-2.586.002-.002a1.296 1.296 0 0 1 1.848-.022l3.496 3.387.002.002c.523.504.533 1.32.022 1.85l-2.737 2.82-.144 1.203a17.695 17.695 0 0 1 1.681 4.293l.004.018.004.013.983.744 3.601-.052a1.3 1.3 0 0 1 1.332 1.281v.002l.076 4.861a1.294 1.294 0 0 1-1.285 1.328l-3.931.065-.94.705-.004.016-.008.02a17.285 17.285 0 0 1-1.837 4.224l.144 1.258 2.584 2.507.002.002c.528.51.54 1.32.027 1.846l-.002.004-3.382 3.494a1.302 1.302 0 0 1-1.856.027l-2.82-2.736-1.164-.166-.012.008-.016.008a17.693 17.693 0 0 1-4.302 1.687l-.016.004-.016.004-.742.98.055 3.608a1.284 1.284 0 0 1-1.278 1.32l-4.857.076A1.296 1.296 0 0 1 21 46.702l-.064-3.935-.729-.946-.012-.004a17.16 17.16 0 0 1-4.224-1.843l-.004-.002-.01-.006-1.242.156-2.506 2.588-.002.002a1.31 1.31 0 0 1-1.854.033l-.002-.002-3.496-3.387a1.289 1.289 0 0 1-.027-1.847l.002-.002 2.738-2.826.143-1.202-.006-.013a17.399 17.399 0 0 1-1.676-4.291v-.004l-.004-.016-.986-.758-3.603.053H3.43a1.298 1.298 0 0 1-1.34-1.285l-.076-4.853a1.3 1.3 0 0 1 1.279-1.334h.004l3.933-.065.952-.746a17.188 17.188 0 0 1 1.836-4.213l-.143-1.262-2.586-2.507-.002-.004a1.298 1.298 0 0 1-.023-1.848l.002-.002 3.384-3.498a1.288 1.288 0 0 1 1.848-.027v.002l2.822 2.738 1.164.168.012-.008.018-.01a17.078 17.078 0 0 1 4.302-1.677l.01-.002.014-.004.758-.987-.063-3.607a1.297 1.297 0 0 1 1.293-1.326zm1.272 13.043c-1.849 0-2.95.81-2.95 1.863 0 .835.801 1.438 2.093 1.855.947.31 1.356.584 1.356 1.043 0 .476-.477.804-1.39.804-.69 0-1.403-.16-1.848-.361l-.322 1.037c.4.183 1.255.357 2.101.357 1.994 0 3.12-.818 3.12-1.937 0-.844-.613-1.436-1.982-1.895-1.047-.36-1.47-.57-1.47-1.028 0-.36.389-.71 1.258-.71a4.215 4.241 0 0 1 1.523.277l.349-1.012c-.401-.15-1.025-.293-1.838-.293zm-13.372.043c-.836 0-1.636.06-2.204.134v6.34h1.635v-2.607h.558c.78 0 1.125.26 1.348 1.087.2.776.411 1.336.535 1.52h1.69c-.167-.243-.39-1.012-.634-1.772-.201-.651-.535-1.085-1.136-1.26v-.026c.801-.234 1.47-.81 1.47-1.594 0-1.72-2.182-1.822-3.262-1.822zm4.632.052v6.423h4.787v-1.039h-3.14V18.75h2.795v-1.01h-2.794v-1.555h2.961v-1.033zm11.465 0v1.067h2.104v5.354h1.65V16.22h2.115v-1.067zm-15.909.892c.602 0 1.426.16 1.426.987 0 .61-.569 1.019-1.504 1.019h-.679v-1.956c.134-.033.39-.05.757-.05zm-.005 7.764-4.104 11.135h3.441l.551-1.836h3.816l.543 1.836h3.528l-4.087-11.135zm8.571 0v11.135h3.38v-4.12h1.85c1.359 0 2.374-.315 3.035-.95.663-.634.994-1.514.994-2.64 0-1.094-.304-1.943-.91-2.537-.606-.593-1.522-.888-2.745-.888Zm10.622 0v11.135h3.381V23.808Zm-7.243 2.272h.967c.634 0 1.068.124 1.296.364.23.243.345.542.345.89 0 .357-.134.654-.399.884-.264.234-.725.348-1.379.348h-.83zm-10.15.61 1.192 4.005H16.37z"/></svg>