<svg viewBox="0 0 50 50" width="50" height="50" xmlns="http://www.w3.org/2000/svg"><path d="m27.678 0-4.857.076a3.367 3.367 0 0 0-3.3 3.389v.006l.052 2.896c-1.132.327-2.23.75-3.284 1.28l-2.345-2.278h-.002a3.355 3.355 0 0 0-4.733.07l-3.386 3.5-.002.003c-1.268 1.317-1.25 3.45.074 4.726l2.074 2.014a19.184 19.184 0 0 0-1.408 3.226l-3.274.055C1.451 18.99-.023 20.531 0 22.36v.002l.076 4.863v.006a3.366 3.366 0 0 0 3.418 3.279l2.887-.041a19.43 19.43 0 0 0 1.287 3.291l-2.277 2.35a3.359 3.359 0 0 0 .07 4.734l3.498 3.387.002.002c1.322 1.273 3.458 1.24 4.735-.082l.002-.002 2.007-2.073a19.155 19.155 0 0 0 3.227 1.407l.055 3.275v.002a3.364 3.364 0 0 0 3.396 3.287l4.862-.076a3.351 3.351 0 0 0 3.28-3.389l-.044-2.892c1.13-.332 2.225-.76 3.277-1.287l2.348 2.279.002.002a3.371 3.371 0 0 0 4.726-.068l.004-.004 3.387-3.5-.004.002a3.354 3.354 0 0 0-.07-4.733l-2.072-2.011a19.282 19.282 0 0 0 1.408-3.229l3.273-.055h.002a3.362 3.362 0 0 0 3.285-3.396l-.076-4.861c-.025-1.84-1.566-3.315-3.396-3.29h-.002l-2.89.041a19.702 19.702 0 0 0-1.288-3.277l2.28-2.35.001-.001c1.27-1.318 1.252-3.452-.072-4.729l-.002-.002-3.496-3.387-.002-.002c-1.317-1.269-3.45-1.25-4.727.072L34.366 7.98a19.244 19.244 0 0 0-3.235-1.414l-.055-3.276v-.008a3.374 3.374 0 0 0-3.392-3.28Zm.027 2.037A1.307 1.307 0 0 1 29.04 3.33l.065 3.928.744.95h-.004l.004.001h.002a17.247 17.247 0 0 1 4.232 1.85l.012.008.014.007 1.224-.166 2.508-2.586.002-.002a1.296 1.296 0 0 1 1.847-.02l3.496 3.387.002.002c.523.503.533 1.319.021 1.85l-2.736 2.82-.144 1.203a17.695 17.695 0 0 1 1.681 4.293l.004.017.004.014.982.744 3.602-.053a1.3 1.3 0 0 1 1.332 1.282v.002l.076 4.86a1.294 1.294 0 0 1-1.285 1.33l-3.932.064-.939.705-.004.015-.008.02a17.285 17.285 0 0 1-1.838 4.224l.145 1.258 2.584 2.508.002.002c.528.51.54 1.32.027 1.846l-.002.004-3.383 3.494a1.302 1.302 0 0 1-1.855.027l-2.82-2.736-1.165-.166-.011.007-.016.008a17.693 17.693 0 0 1-4.303 1.688l-.015.004-.016.004-.742.98.055 3.607a1.284 1.284 0 0 1-1.278 1.32l-4.857.077a1.296 1.296 0 0 1-1.33-1.285l-.065-3.936-.728-.945-.012-.004a17.16 17.16 0 0 1-4.225-1.844l-.003-.002-.01-.006-1.242.157-2.506 2.588-.002.002a1.31 1.31 0 0 1-1.854.033l-.002-.002-3.496-3.387a1.289 1.289 0 0 1-.027-1.848l.002-.002 2.738-2.826.143-1.2-.006-.015a17.399 17.399 0 0 1-1.676-4.29v-.004l-.004-.016-.986-.758-3.604.053h-.006a1.298 1.298 0 0 1-1.34-1.285l-.076-4.854A1.3 1.3 0 0 1 3.317 21h.004l3.933-.064.951-.746a17.188 17.188 0 0 1 1.836-4.213L9.9 14.715l-2.586-2.508-.002-.004a1.298 1.298 0 0 1-.024-1.847l.002-.002 3.385-3.498a1.288 1.288 0 0 1 1.848-.028v.002l2.822 2.739 1.164.168.012-.008.017-.01A17.078 17.078 0 0 1 20.84 8.04l.01-.002.014-.004.757-.986-.062-3.607a1.297 1.297 0 0 1 1.293-1.327zm.076-1.869-5.06.08a2.428 2.421 0 0 0-2.39 2.447l.064 3.735a18.848 18.793 0 0 0-4.749 1.845L12.72 5.441a2.418 2.41 0 0 0-3.426.051L5.766 9.125c-.927.96-.912 2.49.05 3.414l2.682 2.594a18.954 18.899 0 0 0-2.037 4.65l-4.082.069a2.422 2.422 0 0 0-2.381 2.453l.08 5.047a2.428 2.421 0 0 0 2.479 2.369l3.738-.053a19.177 19.12 0 0 0 1.86 4.738l-2.842 2.92a2.418 2.41 0 0 0 .05 3.418l3.643 3.516a2.44 2.44 0 0 0 3.433-.059l2.6-2.676a18.948 18.892 0 0 0 4.666 2.03l.066 4.07A2.426 2.419 0 0 0 22.232 50l5.063-.08a2.413 2.406 0 0 0 2.373-2.443l-.057-3.729a19.488 19.43 0 0 0 4.739-1.852l2.93 2.833a2.433 2.426 0 0 0 3.427-.05l3.525-3.632a2.416 2.409 0 0 0-.05-3.416l-2.68-2.592a19.055 19 0 0 0 2.035-4.652l4.082-.067A2.426 2.419 0 0 0 50 27.865l-.08-5.045c-.018-1.33-1.13-2.391-2.463-2.373l-3.736.055a19.488 19.43 0 0 0-1.86-4.725l2.842-2.92a2.413 2.413 0 0 0-.05-3.416L41.01 5.926c-.962-.924-2.497-.91-3.424.049l-2.602 2.671a19.032 18.977 0 0 0-4.675-2.033l-.067-4.072a2.438 2.43 0 0 0-2.46-2.373Zm1.17 14.973c.813 0 1.437.142 1.838.293l-.348 1.011a4.215 4.241 0 0 0-1.523-.275c-.87 0-1.26.35-1.26.709 0 .459.424.667 1.47 1.027 1.37.46 1.983 1.051 1.983 1.895 0 1.119-1.127 1.94-3.12 1.94-.847 0-1.7-.175-2.1-.358l.32-1.037c.445.2 1.159.361 1.85.361.912 0 1.39-.328 1.39-.805 0-.459-.41-.733-1.357-1.043C26.802 18.442 26 17.84 26 17.004c0-1.052 1.103-1.863 2.951-1.863zm-13.373.043c1.08 0 3.262.101 3.262 1.822 0 .785-.668 1.36-1.469 1.594v.025c.601.175.934.609 1.135 1.26.244.76.468 1.529.635 1.771h-1.69c-.123-.183-.335-.74-.535-1.517-.223-.827-.569-1.088-1.348-1.088h-.558v2.605h-1.635v-6.338a17.656 17.656 0 0 1 2.203-.134zm4.633.052h4.61v1.034h-2.962v1.554h2.793v1.01H21.86v1.787h3.139v1.037h-4.787zm11.465 0h5.869v1.067H35.43v5.353h-1.65v-5.353h-2.105zm-15.908.893c-.368 0-.625.015-.758.049v1.955h.68c.934 0 1.503-.408 1.503-1.018 0-.826-.824-.986-1.425-.986zm-.006 7.764h3.69l4.085 11.134h-3.53l-.54-1.836H15.65l-.55 1.836h-3.442zm8.572 0h5.604c1.222 0 2.138.293 2.744.886.605.594.91 1.444.91 2.537 0 1.127-.332 2.007-.994 2.641-.662.635-1.676.95-3.035.95h-1.85v4.12h-3.379zm10.621 0h3.38v11.134h-3.38zm-7.242 2.271v2.486h.83c.654 0 1.114-.113 1.379-.347.264-.23.398-.529.398-.885a1.25 1.25 0 0 0-.345-.889c-.228-.24-.661-.365-1.295-.365zm-10.15.61-1.196 4.005h2.387z"/></svg>