<svg width="50" height="50" viewBox="0 0 50 50" xmlns="http://www.w3.org/2000/svg">
  <path d="m27.691.148-5.046.08a2.422 2.422 0 0 0-2.385 2.448l.064 3.736a18.8 18.8 0 0 0-4.736 1.846l-2.92-2.834a2.412 2.412 0 0 0-3.418.05L5.732 9.108c-.924.96-.91 2.492.05 3.416l2.675 2.594a18.906 18.906 0 0 0-2.031 4.654l-4.072.067c-1.33.018-2.391 1.125-2.374 2.455l.08 5.049a2.422 2.422 0 0 0 2.471 2.37l3.729-.054A19.128 19.128 0 0 0 8.115 34.4l-2.834 2.922a2.412 2.412 0 0 0 .051 3.418l3.633 3.518c.96.924 2.5.899 3.424-.06l2.593-2.675a18.9 18.9 0 0 0 4.655 2.03l.066 4.072A2.42 2.42 0 0 0 22.158 50l5.049-.08a2.407 2.407 0 0 0 2.367-2.445l-.056-3.729a19.438 19.438 0 0 0 4.726-1.853l2.922 2.834c.96.924 2.484.903 3.418-.05l3.518-3.634a2.41 2.41 0 0 0-.051-3.416l-2.674-2.594a19.007 19.007 0 0 0 2.03-4.654l4.072-.067a2.42 2.42 0 0 0 2.375-2.455l-.08-5.048c-.018-1.33-1.126-2.391-2.456-2.373l-3.728.054a19.438 19.438 0 0 0-1.854-4.726l2.834-2.922c.925-.96.911-2.492-.049-3.416l-3.634-3.518c-.96-.924-2.492-.91-3.416.049l-2.594 2.674a18.984 18.984 0 0 0-4.664-2.035l-.067-4.073A2.431 2.431 0 0 0 27.691.148zm1.135 13.998c.891 0 1.575.155 2.014.319l-.38 1.101a4.62 4.62 0 0 0-1.67-.3c-.953 0-1.38.382-1.38.773 0 .5.464.728 1.611 1.12 1.501.5 2.172 1.145 2.172 2.064 0 1.219-1.233 2.111-3.418 2.111-.927 0-1.865-.19-2.304-.39l.353-1.13c.488.219 1.269.393 2.026.393 1 0 1.525-.356 1.525-.875 0-.5-.451-.8-1.488-1.137-1.416-.455-2.295-1.11-2.295-2.02 0-1.146 1.208-2.029 3.234-2.029zm-14.656.047c1.184 0 3.576.109 3.576 1.983 0 .855-.733 1.483-1.611 1.738v.027c.659.191 1.024.664 1.244 1.373.268.828.512 1.666.695 1.93h-1.853c-.135-.2-.367-.81-.586-1.656-.244-.9-.623-1.184-1.477-1.184h-.611v2.84h-1.793v-6.906c.622-.082 1.5-.145 2.416-.145zm5.076.055H24.3v1.127h-3.246v1.693h3.062v1.1h-3.062v1.947h3.441v1.13h-5.248v-6.997zm12.568 0h6.432v1.164h-2.318v5.832H34.12v-5.832h-2.307v-1.164zm-17.437.973c-.403 0-.684.018-.83.054v2.13h.744c1.025 0 1.648-.446 1.648-1.11 0-.9-.903-1.074-1.562-1.074zm-.006 8.457h4.043l4.479 12.13h-3.868l-.593-2h-4.184l-.603 2H9.873l4.498-12.13zm9.393 0h6.144c1.34 0 2.344.322 3.008.968.664.647.998 1.571.998 2.762 0 1.227-.364 2.186-1.09 2.877-.725.692-1.838 1.035-3.328 1.035H27.47v4.489h-3.705V23.678zm11.644 0h3.705v12.13h-3.705v-12.13zm-7.94 2.476v2.707h.91c.717 0 1.223-.124 1.513-.379.29-.25.435-.574.435-.962 0-.38-.126-.706-.377-.97-.25-.262-.725-.396-1.42-.396h-1.06zm-11.124.664-1.31 4.364h2.616l-1.306-4.364z"/>
</svg>