<?xml version="1.0" encoding="UTF-8" standalone="no"?>
<svg
   width="128"
   height="128"
   style="enable-background:new 0 0 128 128;"
   version="1.1"
   id="svg675"
   sodipodi:docname="sparkles-favicon.svg"
   inkscape:version="1.2.2 (732a01da63, 2022-12-09)"
   inkscape:export-filename="sparkles.png"
   inkscape:export-xdpi="96"
   inkscape:export-ydpi="96"
   xmlns:inkscape="http://www.inkscape.org/namespaces/inkscape"
   xmlns:sodipodi="http://sodipodi.sourceforge.net/DTD/sodipodi-0.dtd"
   xmlns="http://www.w3.org/2000/svg"
   xmlns:svg="http://www.w3.org/2000/svg">
  <defs
     id="defs679" />
  <sodipodi:namedview
     id="namedview677"
     pagecolor="#505050"
     bordercolor="#eeeeee"
     borderopacity="1"
     inkscape:showpageshadow="0"
     inkscape:pageopacity="0"
     inkscape:pagecheckerboard="0"
     inkscape:deskcolor="#505050"
     showgrid="false"
     inkscape:zoom="4"
     inkscape:cx="136.125"
     inkscape:cy="17.375"
     inkscape:window-width="1718"
     inkscape:window-height="1368"
     inkscape:window-x="0"
     inkscape:window-y="0"
     inkscape:window-maximized="0"
     inkscape:current-layer="svg675" />
  <path
     id="path607"
     style="stroke-width:2"
     transform="matrix(0,3.93467,-4.0199919,0,-8.2736329,177.73829)"
     d="m -20.798716,-3.8777282 -16.265659,-0.0287 -8.107974,-14.1008239 8.157684,-14.072124 16.265659,0.0287 8.107974,14.100824 z" />
  <g
     id="g342"
     transform="matrix(1.3790651,0,0,1.2685831,-48.288699,-24.931941)">
    <path
       d="M 81.423785,114.38855 78.530861,94.671221 C 77.333488,84.961136 70.140509,77.068961 60.587743,74.971372 L 46.831061,71.94735 60.587743,68.923327 c 9.552766,-2.097588 16.745745,-9.989764 17.943118,-19.699848 l 2.892924,-23.405588 2.892924,23.405588 c 1.197373,9.710084 8.390352,17.60226 17.943121,19.699848 l 13.75668,3.024023 -13.75668,3.024022 c -9.552769,2.097589 -16.745748,9.989764 -17.943121,19.699849 z"
       style="fill:#00d3ff;fill-opacity:0.941379;stroke:#ffffff;stroke-width:4.53628;stroke-linecap:round;stroke-linejoin:round;stroke-dasharray:none;stroke-opacity:1;paint-order:stroke fill markers"
       id="path403"
       sodipodi:nodetypes="ccccccccccccc" />
    <path
       d="m 80.05,103.57 -0.34,-2.29 C 78.17,88.95 68.99,78.88 56.85,76.22 l -2.4,-0.53 2.4,-0.53 C 69,72.49 78.19,62.4 79.71,50.06 l 0.33,-2.68 0.33,2.68 c 1.53,12.35 10.71,22.43 22.86,25.1 l 2.4,0.53 -2.4,0.53 C 91.09,78.89 81.91,88.96 80.37,101.29 l -0.32,2.28 m 0,20.67 3.31,-22.56 c 1.37,-11.11 9.6,-20.14 20.53,-22.54 l 15.74,-3.46 -15.74,-3.46 C 92.96,69.82 84.73,60.79 83.36,49.68 L 80.05,22.9 76.74,49.68 c -1.37,11.11 -9.6,20.14 -20.53,22.54 l -15.74,3.46 15.74,3.47 c 10.93,2.4 19.16,11.43 20.53,22.54 z"
       style="opacity:0.4;fill:#00fbff;stroke:none;stroke-opacity:1;stroke-linejoin:round;stroke-linecap:round;stroke-width:0.99999314;stroke-dasharray:none;paint-order:markers fill stroke;fill-opacity:1"
       id="path405"
       transform="matrix(0.87399504,0,0,0.87399504,11.460481,5.8035471)" />
  </g>
</svg>
